<?xml version="1.0" encoding="UTF-8" standalone="no"?>
<!-- Created with Inkscape (http://www.inkscape.org/) -->
<svg
   xmlns:dc="http://purl.org/dc/elements/1.1/"
   xmlns:cc="http://web.resource.org/cc/"
   xmlns:rdf="http://www.w3.org/1999/02/22-rdf-syntax-ns#"
   xmlns:svg="http://www.w3.org/2000/svg"
   xmlns="http://www.w3.org/2000/svg"
   xmlns:xlink="http://www.w3.org/1999/xlink"
   xmlns:sodipodi="http://sodipodi.sourceforge.net/DTD/sodipodi-0.dtd"
   xmlns:inkscape="http://www.inkscape.org/namespaces/inkscape"
   width="2000"
   height="1052.3622"
   id="svg2"
   sodipodi:version="0.32"
   inkscape:version="0.45"
   sodipodi:docbase="C:\dev\chorus\artwork"
   sodipodi:docname="chorus.svg"
   version="1.0"
   inkscape:output_extension="org.inkscape.output.svg.inkscape"
   inkscape:export-filename="E:\Users\John\Desktop\chorus120x108.png.png"
   inkscape:export-xdpi="16.799999"
   inkscape:export-ydpi="16.799999"
   sodipodi:modified="TRUE">
  <defs
	 id="defs4">
	<linearGradient
	   id="linearGradient11719">
	  <stop
		 style="stop-color:black;stop-opacity:0;"
		 offset="0"
		 id="stop11721" />
	  <stop
		 style="stop-color:black;stop-opacity:0;"
		 offset="0.60000002"
		 id="stop11723" />
	  <stop
		 style="stop-color:black;stop-opacity:1;"
		 offset="1"
		 id="stop11725" />
	</linearGradient>
	<linearGradient
	   id="linearGradient853">
	  <stop
		 id="stop854"
		 offset="0.0000000"
		 style="stop-color:#e3f9ff;stop-opacity:1.0000000;" />
	  <stop
		 id="stop867"
		 offset="0.36194703"
		 style="stop-color:#73bee7;stop-opacity:1.0000000;" />
	  <stop
		 id="stop856"
		 offset="0.62534887"
		 style="stop-color:#438ec5;stop-opacity:1.0000000;" />
	  <stop
		 id="stop1185"
		 offset="0.72607356"
		 style="stop-color:#477daf;stop-opacity:1.0000000;" />
	  <stop
		 id="stop855"
		 offset="1.0000000"
		 style="stop-color:#020407;stop-opacity:1.0000000;" />
	</linearGradient>
	<linearGradient
	   id="linearGradient1400">
	  <stop
		 id="stop1401"
		 offset="0.0000000"
		 style="stop-color:#000000;stop-opacity:0.67843139;" />
	  <stop
		 id="stop1403"
		 offset="0.56999999"
		 style="stop-color:#000000;stop-opacity:0.32941177;" />
	  <stop
		 id="stop1402"
		 offset="1.0000000"
		 style="stop-color:#000000;stop-opacity:0.00000000;" />
	</linearGradient>
	<linearGradient
	   id="linearGradient865">
	  <stop
		 id="stop866"
		 offset="0.00000000"
		 style="stop-color:#ffffff;stop-opacity:1.0000000;" />
	  <stop
		 id="stop868"
		 offset="1.0000000"
		 style="stop-color:#ffffff;stop-opacity:0.00000000;" />
	</linearGradient>
	<linearGradient
	   id="linearGradient883">
	  <stop
		 id="stop884"
		 offset="0.0000000"
		 style="stop-color:#1f1f1f;stop-opacity:0.55371898;" />
	  <stop
		 id="stop885"
		 offset="1.0000000"
		 style="stop-color:#000000;stop-opacity:0.0000000;" />
	</linearGradient>
	<radialGradient
	   inkscape:collect="always"
	   xlink:href="#linearGradient11719"
	   id="radialGradient35558"
	   gradientUnits="userSpaceOnUse"
	   gradientTransform="matrix(0.8218469,-3.0447472,2.6547377,0.7061184,-372.23271,1304.0096)"
	   cx="387.06323"
	   cy="167.87946"
	   fx="387.06323"
	   fy="167.87946"
	   r="60.30331" />
	<radialGradient
	   inkscape:collect="always"
	   xlink:href="#linearGradient11719"
	   id="radialGradient35560"
	   gradientUnits="userSpaceOnUse"
	   gradientTransform="matrix(3.5446249,0,0,2.4106894,-1057.1869,-313.91899)"
	   cx="411.14557"
	   cy="235.52438"
	   fx="411.14557"
	   fy="235.52438"
	   r="35.011574" />
	<radialGradient
	   inkscape:collect="always"
	   xlink:href="#linearGradient11719"
	   id="radialGradient35562"
	   gradientUnits="userSpaceOnUse"
	   gradientTransform="matrix(1.3026089,-2.2396876,2.564812,1.4699523,-558.06835,833.13864)"
	   cx="406.67474"
	   cy="192.46031"
	   fx="406.67474"
	   fy="192.46031"
	   r="60.30331" />
	<radialGradient
	   inkscape:collect="always"
	   xlink:href="#linearGradient1400"
	   id="radialGradient35570"
	   gradientUnits="userSpaceOnUse"
	   cx="79.895966"
	   cy="77.944687"
	   fx="81.23674"
	   fy="122.44558"
	   r="68.379425" />
	<radialGradient
	   inkscape:collect="always"
	   xlink:href="#linearGradient853"
	   id="radialGradient35572"
	   gradientUnits="userSpaceOnUse"
	   cx="227.00549"
	   cy="477.83307"
	   fx="240.38737"
	   fy="325.7662"
	   r="200.73203" />
	<linearGradient
	   inkscape:collect="always"
	   xlink:href="#linearGradient865"
	   id="linearGradient35574"
	   gradientUnits="userSpaceOnUse"
	   gradientTransform="matrix(12.24053,0,0,10.7049,-2129.293,-230.6934)"
	   x1="20.783669"
	   y1="161.48068"
	   x2="63.013203"
	   y2="114.75398" />
	<linearGradient
	   inkscape:collect="always"
	   xlink:href="#linearGradient865"
	   id="linearGradient35576"
	   gradientUnits="userSpaceOnUse"
	   gradientTransform="matrix(12.68885,0,0,10.32666,-2129.293,-230.6934)"
	   x1="105.80702"
	   y1="25.611177"
	   x2="82.344437"
	   y2="46.947098" />
	<linearGradient
	   inkscape:collect="always"
	   xlink:href="#linearGradient865"
	   id="linearGradient35578"
	   gradientUnits="userSpaceOnUse"
	   x1="43.39798"
	   y1="-53.39077"
	   x2="38.977112"
	   y2="40.053986" />
	<linearGradient
	   inkscape:collect="always"
	   xlink:href="#linearGradient865"
	   id="linearGradient35580"
	   gradientUnits="userSpaceOnUse"
	   x1="52.259628"
	   y1="152.0437"
	   x2="52.259628"
	   y2="29.67622" />
	<radialGradient
	   inkscape:collect="always"
	   xlink:href="#linearGradient11719"
	   id="radialGradient2516"
	   gradientUnits="userSpaceOnUse"
	   gradientTransform="matrix(4.7352824,0.7318412,-0.4418724,2.7652263,-2181.3503,-1090.4926)"
	   cx="619.71777"
	   cy="344.68451"
	   fx="619.71777"
	   fy="344.68451"
	   r="18.90852" />
	<radialGradient
	   inkscape:collect="always"
	   xlink:href="#linearGradient883"
	   id="radialGradient2519"
	   gradientUnits="userSpaceOnUse"
	   gradientTransform="matrix(2.8450099,-0.1751509,0.2570865,1.3768963,-1254.8787,-43.717707)"
	   cx="627.57733"
	   cy="340.2211"
	   fx="627.57733"
	   fy="340.2211"
	   r="18.90852" />
	<radialGradient
	   inkscape:collect="always"
	   xlink:href="#linearGradient11719"
	   id="radialGradient2530"
	   gradientUnits="userSpaceOnUse"
	   gradientTransform="matrix(3.5820246,-1.7760154,1.3491806,1.5981356,-2083.0196,880.1563)"
	   cx="616.78058"
	   cy="347.67801"
	   fx="616.78058"
	   fy="347.67801"
	   r="28.666052" />
	<linearGradient
	   inkscape:collect="always"
	   xlink:href="#linearGradient865"
	   id="linearGradient2267"
	   gradientUnits="userSpaceOnUse"
	   gradientTransform="matrix(4.6324073,0,0,3.7700261,65.277199,151.36735)"
	   x1="105.80702"
	   y1="25.611177"
	   x2="82.344437"
	   y2="46.947098" />
	<linearGradient
	   inkscape:collect="always"
	   xlink:href="#linearGradient865"
	   id="linearGradient2270"
	   gradientUnits="userSpaceOnUse"
	   gradientTransform="matrix(4.468736,0,0,3.9081128,65.277199,151.36735)"
	   x1="20.783669"
	   y1="161.48068"
	   x2="63.013203"
	   y2="114.75398" />
  </defs>
  <sodipodi:namedview
	 id="base"
	 pagecolor="#ffffff"
	 bordercolor="#666666"
	 borderopacity="1.0"
	 inkscape:pageopacity="0.0"
	 inkscape:pageshadow="2"
	 inkscape:zoom="0.25000001"
	 inkscape:cx="1071.7025"
	 inkscape:cy="336.88005"
	 inkscape:document-units="px"
	 inkscape:current-layer="g2360"
	 inkscape:window-width="1024"
	 inkscape:window-height="749"
	 inkscape:window-x="96"
	 inkscape:window-y="362"
	 showguides="true"
	 inkscape:guide-bbox="true"
	 width="2000px"
	 height="1052.3622px"
	 units="cm" />
  <metadata
	 id="metadata7">
	<rdf:RDF>
	  <cc:Work
		 rdf:about="">
		<dc:format>image/svg+xml</dc:format>
		<dc:type
		   rdf:resource="http://purl.org/dc/dcmitype/StillImage" />
	  </cc:Work>
	</rdf:RDF>
  </metadata>
  <g
	 inkscape:label="Layer 1"
	 inkscape:groupmode="layer"
	 id="layer1">
	<g
	   id="g2360"
	   transform="matrix(0.8858634,0,0,0.8858634,138.47692,73.202345)">
	  <path
		 inkscape:export-ydpi="14"
		 inkscape:export-xdpi="14"
		 inkscape:export-filename="c:\dev\chorus\artwork\chorusLabelled.png"
		 transform="matrix(0.6070562,0,0,0.6024061,-63.494201,259.77123)"
		 d="M 797.40625,-260.21875 C 763.91716,-259.51878 727.88814,-246.08441 694.1875,-215.84375 C 691.2994,-213.22004 690.49286,-209.00339 692.20883,-205.49905 C 693.9248,-201.99471 697.75023,-200.04619 701.59375,-200.71875 C 694.85356,-196.03751 688.31639,-190.61235 682.25,-184.4375 C 657.87509,-159.62676 642.82152,-121.04812 661.0625,-74.3125 C 662.20843,-71.382051 664.83691,-69.290446 667.94986,-68.8319 C 671.0628,-68.373354 674.18275,-69.6182 676.125,-72.09375 C 700.91408,-103.85951 751.99891,-138.15034 789.65625,-155.9375 C 789.84751,-156.03475 790.03514,-156.13899 790.21875,-156.25 C 814.25729,-132.83976 847.39679,-101.73975 865.1875,-65.78125 C 862.93117,-64.790888 861.19578,-62.896704 860.40625,-60.5625 C 846.34824,-18.420784 818.84723,4.9965326 807,16.84375 C 802.06664,21.777108 801.0055,27.513862 800.375,34.3125 C 799.7445,41.111138 800.31314,48.96389 802.5625,57.15625 C 807.06122,73.54097 818.94058,91.40962 841.40625,99.90625 C 882.70529,115.52576 931.25617,117.16625 973.0625,89.4375 C 999.83879,71.67769 1009.1104,47.475389 1008.8438,17.875 C 1008.8095,14.784757 1007.1507,11.94084 1004.4778,10.389647 C 1001.8048,8.8384531 998.51263,8.8091427 995.8125,10.3125 C 979.07798,19.609453 963.13099,18.045503 950.4375,9.15625 C 937.74401,0.2669968 928.28906,-16.6246 928,-39.75 C 927.62948,-69.391411 930.76569,-85.14884 932.59375,-101.375 C 934.42181,-117.60116 934.67423,-134.09534 928.28125,-161.3125 C 915.16293,-217.16173 861.3399,-261.55507 797.40625,-260.21875 z M 792.03125,-171.375 C 791.96239,-171.61426 792.10537,-171.58894 792.125,-171.1875 C 792.11473,-171.21998 792.03909,-171.34776 792.03125,-171.375 z "
		 id="path10214"
		 style="fill:#000000;fill-opacity:1;fill-rule:evenodd;stroke:none;stroke-width:1px;stroke-linecap:butt;stroke-linejoin:miter;stroke-opacity:1"
		 inkscape:original="M 797.59375 -251.46875 C 766.29791 -250.81462 732.39465 -238.35322 700.03125 -209.3125 C 707.9339 -213.31738 742.4367 -222.90483 751.5625 -222.4375 C 766.92081 -221.65101 771.59973 -213.34375 760.65625 -213.34375 C 724.39149 -213.34375 635.01322 -165.13876 669.21875 -77.5 C 695.64504 -111.36375 747.14792 -145.56779 785.90625 -163.875 C 781.3412 -171.7819 783.09998 -175.55628 788.0625 -170.59375 C 813.21197 -145.44428 858.15873 -106.95931 877.3125 -60.3125 C 904.18615 -151.00877 862.38539 -174.29364 866.71875 -197.1875 C 885.84052 -189.9092 898.6664 -110.66607 884.90625 -59.3125 C 882.06955 -48.725791 871.03887 -46.876259 868.71875 -57.78125 C 853.86732 -13.261089 824.21247 12.006291 813.1875 23.03125 C 805.02885 31.189896 805.10403 76.818997 844.5 91.71875 C 883.89595 106.6185 929.13262 108.04953 968.21875 82.125 C 992.96745 65.710021 1000.315 46.000482 1000.0625 17.96875 C 961.42416 39.434492 919.88713 11.346826 919.25 -39.625 C 918.49239 -100.23415 932.17358 -106.42099 919.75 -159.3125 C 907.62455 -210.93476 857.34035 -252.71755 797.59375 -251.46875 z "
		 inkscape:radius="8.7661829"
		 sodipodi:type="inkscape:offset" />
	  <path
		 inkscape:export-ydpi="14"
		 inkscape:export-xdpi="14"
		 inkscape:export-filename="c:\dev\chorus\artwork\chorusLabelled.png"
		 sodipodi:nodetypes="cssscsccsccsscssc"
		 id="path9333"
		 d="M 542.42227,271.0481 C 542.57426,287.79789 538.16596,299.568 523.26897,309.37644 C 499.74181,324.86711 472.49748,324.01363 448.78385,315.1106 C 425.07022,306.20755 425.02361,278.94111 429.93455,274.06608 C 436.57081,267.47835 454.43731,252.38052 463.37685,225.77842 C 464.7734,232.29446 471.39801,231.1989 473.10551,224.87303 C 481.38817,194.18774 473.67075,146.83118 462.16077,142.48219 C 459.55238,156.16193 484.72128,170.07573 468.54519,224.26942 C 457.01597,196.39658 429.95913,173.40034 414.82088,158.3728 C 411.83379,155.40755 410.76957,157.67624 413.51742,162.40085 C 390.18759,173.33994 359.19538,193.7737 343.2886,214.00829 C 322.69923,161.64155 376.4875,132.82464 398.31637,132.82464 C 404.9036,132.82464 402.08864,127.86224 392.84399,127.39229 C 387.35089,127.11304 366.59071,132.84599 361.83386,135.23903 C 418.50446,84.758498 482.96116,118.11388 494.08296,165.11703 C 501.56109,196.72126 493.32291,200.42739 493.77893,236.64314 C 494.16245,267.1003 519.16466,283.87452 542.42227,271.0481 z "
		 style="fill:#8b4513;fill-opacity:1;fill-rule:evenodd;stroke:none;stroke-width:1px;stroke-linecap:butt;stroke-linejoin:miter;stroke-opacity:1" />
	  <path
		 inkscape:export-ydpi="14"
		 inkscape:export-xdpi="14"
		 inkscape:export-filename="c:\dev\chorus\artwork\chorusLabelled.png"
		 style="fill:url(#radialGradient35558);fill-opacity:1;fill-rule:evenodd;stroke:none;stroke-width:1px;stroke-linecap:butt;stroke-linejoin:miter;stroke-opacity:1"
		 d="M 542.42227,271.0481 C 542.57426,287.79789 538.16596,299.568 523.26897,309.37644 C 499.74181,324.86711 472.49748,324.01363 448.78385,315.1106 C 425.07022,306.20755 425.02361,278.94111 429.93455,274.06608 C 436.57081,267.47835 454.43731,252.38052 463.37685,225.77842 C 464.7734,232.29446 471.39801,231.1989 473.10551,224.87303 C 481.38817,194.18774 473.67075,146.83118 462.16077,142.48219 C 459.55238,156.16193 484.72128,170.07573 468.54519,224.26942 C 457.01597,196.39658 429.95913,173.40034 414.82088,158.3728 C 411.83379,155.40755 410.76957,157.67624 413.51742,162.40085 C 390.18759,173.33994 359.19538,193.7737 343.2886,214.00829 C 322.69923,161.64155 376.4875,132.82464 398.31637,132.82464 C 404.9036,132.82464 402.08864,127.86224 392.84399,127.39229 C 387.35089,127.11304 366.59071,132.84599 361.83386,135.23903 C 418.50446,84.758498 482.96116,118.11388 494.08296,165.11703 C 501.56109,196.72126 493.32291,200.42739 493.77893,236.64314 C 494.16245,267.1003 519.16466,283.87452 542.42227,271.0481 z "
		 id="path11713"
		 sodipodi:nodetypes="cssscsccsccsscssc" />
	  <path
		 inkscape:export-ydpi="14"
		 inkscape:export-xdpi="14"
		 inkscape:export-filename="c:\dev\chorus\artwork\chorusLabelled.png"
		 transform="matrix(0.6019307,0,0,0.5975294,-59.539095,260.3129)"
		 d="M 728.3125,-130.09375 C 726.45696,-130.13403 724.63785,-129.57515 723.125,-128.5 C 706.29256,-116.46053 690.45224,-103.27466 677.90625,-89.84375 C 676.07865,-87.891424 675.2592,-85.202244 675.6875,-82.5625 C 678.33393,-66.337203 679.53832,-39.270031 671.4375,-25.90625 C 665.25396,-15.705364 659.66971,-11.909948 655.3125,-10.625 C 650.95529,-9.3400524 646.82057,-10.197776 642.34375,-12.5 C 633.3901,-17.104448 625.8125,-27.375 625.8125,-27.375 C 623.91129,-30.105843 620.60967,-31.500687 617.3264,-30.960147 C 614.04312,-30.419608 611.36291,-28.039951 610.4375,-24.84375 C 605.20045,-6.7603413 604.34656,13.610136 612.46875,32.125 C 620.59094,50.639864 637.84062,66.509466 665.625,75.21875 C 666.25562,75.406815 666.90567,75.522148 667.5625,75.5625 L 752.90625,82.125 C 754.78647,82.272924 756.66339,81.800949 758.25,80.78125 L 805.21875,50.3125 C 807.85153,48.615642 809.35846,45.625692 809.15625,42.5 C 808.97138,39.632817 808.99237,36.940135 809.21875,34.5 C 809.81322,28.092115 810.36234,25.199096 813.40625,22.15625 C 814.57507,20.987844 816.04661,19.561271 817.59375,18.0625 C 819.32788,16.375777 820.2746,14.038747 820.2033,11.620657 C 820.13201,9.2025667 819.04924,6.9253736 817.21875,5.34375 L 795.84375,-13.03125 L 786.90625,-48.78125 C 786.65185,-49.788198 786.21781,-50.740967 785.625,-51.59375 L 737.5625,-120.90625 L 736.25,-124.4375 C 735.02361,-127.77926 731.87154,-130.02543 728.3125,-130.09375 z "
		 id="path10224"
		 style="fill:#000000;fill-opacity:1;fill-rule:evenodd;stroke:none;stroke-width:1px;stroke-linecap:butt;stroke-linejoin:miter;stroke-opacity:1"
		 inkscape:original="M 728.15625 -121.46875 C 711.67036 -109.67715 696.20781 -96.772203 684.21875 -83.9375 C 686.9836 -66.98615 689.35199 -38.824314 678.8125 -21.4375 C 651.1745 24.156434 618.71875 -22.4375 618.71875 -22.4375 C 609.0749 10.862468 616.26483 50.683291 668.21875 66.96875 L 753.5625 73.53125 L 800.53125 43.0625 C 800.3199 39.784622 800.35196 36.630539 800.625 33.6875 C 801.26087 26.833378 802.33714 21.036119 807.3125 16.0625 C 808.55402 14.821415 810.04424 13.376065 811.59375 11.875 L 788.125 -8.3125 L 778.53125 -46.6875 L 729.84375 -116.875 L 728.15625 -121.46875 z "
		 inkscape:radius="8.6307468"
		 sodipodi:type="inkscape:offset" />
	  <path
		 inkscape:export-ydpi="14"
		 inkscape:export-xdpi="14"
		 inkscape:export-filename="c:\dev\chorus\artwork\chorusLabelled.png"
		 id="path10208"
		 d="M 378.76049,187.73175 C 368.83711,194.77757 359.52974,202.48866 352.31315,210.15777 C 353.9774,220.2867 355.40301,237.11424 349.05896,247.50337 C 332.4228,274.74707 312.8867,246.90584 312.8867,246.90584 C 307.08177,266.80356 311.40961,290.59766 342.68225,300.3287 L 394.05328,304.24999 L 422.32521,286.04402 C 422.19799,284.08539 422.2173,282.20073 422.38164,280.44218 C 422.76439,276.34663 423.41223,272.88261 426.40706,269.91071 C 427.15436,269.16913 428.05137,268.30549 428.98407,267.40857 L 414.85751,255.34594 L 409.08274,232.41574 L 379.77624,190.47666 L 378.76049,187.73175 z "
		 style="fill:#8b4513;fill-opacity:1;fill-rule:evenodd;stroke:none;stroke-width:1px;stroke-linecap:butt;stroke-linejoin:miter;stroke-opacity:1" />
	  <path
		 inkscape:export-ydpi="14"
		 inkscape:export-xdpi="14"
		 inkscape:export-filename="c:\dev\chorus\artwork\chorusLabelled.png"
		 style="fill:url(#radialGradient35560);fill-opacity:1;fill-rule:evenodd;stroke:none;stroke-width:1px;stroke-linecap:butt;stroke-linejoin:miter;stroke-opacity:1"
		 d="M 378.76049,187.73175 C 368.83711,194.77757 359.52974,202.48866 352.31315,210.15777 C 353.9774,220.2867 355.40301,237.11424 349.05896,247.50337 C 332.4228,274.74707 312.8867,246.90584 312.8867,246.90584 C 307.08177,266.80356 311.40961,290.59766 342.68225,300.3287 L 394.05328,304.24999 L 422.32521,286.04402 C 422.19799,284.08539 422.2173,282.20073 422.38164,280.44218 C 422.76439,276.34663 423.41223,272.88261 426.40706,269.91071 C 427.15436,269.16913 428.05137,268.30549 428.98407,267.40857 L 414.85751,255.34594 L 409.08274,232.41574 L 379.77624,190.47666 L 378.76049,187.73175 z "
		 id="path11727" />
	  <path
		 inkscape:export-ydpi="14"
		 inkscape:export-xdpi="14"
		 inkscape:export-filename="c:\dev\chorus\artwork\chorusLabelled.png"
		 id="path10228"
		 d="M 419.72939,163.17703 C 418.87747,163.20145 418.04579,163.43784 417.30286,163.86792 C 417.28972,163.87545 417.29448,163.88154 417.28404,163.8866 C 410.73909,166.83454 403.12175,169.20946 395.37001,171.99059 C 386.25516,177.30746 376.87587,183.50233 368.2455,190.17789 C 368.86032,192.91374 370.12595,197.15374 370.33345,198.24453 C 371.3025,203.33839 371.21141,207.28833 368.77219,216.22644 C 367.03059,222.60834 364.02336,227.21601 361.83117,232.50912 C 359.639,237.80223 358.92772,244.48474 362.92217,251.06988 C 370.84485,264.13087 383.1866,274.78555 405.82856,277.23046 C 404.47858,279.73209 402.47864,282.03973 399.35779,284.27009 C 397.66531,285.48358 396.8908,287.56538 397.43914,289.4798 C 397.98747,291.39423 399.73968,292.74051 401.80314,292.82224 L 421.25302,293.5318 C 422.7066,293.58649 424.13346,292.99549 425.14677,291.94462 C 426.16006,290.89375 426.65882,289.47794 426.5011,288.07934 C 426.18964,285.37748 426.22072,282.84219 426.51992,280.59156 C 426.64461,279.65365 426.77206,278.83638 426.91494,278.14543 C 427.21335,276.68988 426.80382,275.20723 425.80512,274.13078 C 425.64426,273.95699 425.55865,273.81404 425.4101,273.64527 C 442.3601,262.18063 453.22066,247.65685 459.9647,234.48843 C 461.19741,231.7303 462.34188,228.84444 463.36936,225.78691 C 463.43393,226.08814 463.50917,226.35824 463.59508,226.62718 C 464.64149,224.09778 465.54964,221.66733 466.30378,219.36347 C 466.3079,219.35082 466.31856,219.33878 466.32258,219.32612 C 455.16929,196.42708 434.25777,177.11411 419.76701,163.17703 C 419.75429,163.17726 419.74211,163.17669 419.72939,163.17703 z "
		 style="fill:#000000;fill-opacity:1;fill-rule:evenodd;stroke:none;stroke-width:1px;stroke-linecap:butt;stroke-linejoin:miter;stroke-opacity:1" />
	  <path
		 inkscape:export-ydpi="14"
		 inkscape:export-xdpi="14"
		 inkscape:export-filename="c:\dev\chorus\artwork\chorusLabelled.png"
		 id="path10210"
		 d="M 417.30286,156.45482 C 417.30041,156.46988 417.31121,156.49349 417.32166,156.52951 C 417.32643,156.54591 417.37185,156.62198 417.37809,156.64155 C 417.36915,156.46017 417.31019,156.40964 417.30286,156.45482 z M 416.21186,165.64183 C 416.10038,165.70871 415.98939,165.76999 415.87326,165.82856 C 402.59148,172.05405 386.55216,181.6359 372.49663,192.32526 C 372.45811,193.43415 372.54088,194.52324 372.77879,195.593 C 374.07089,201.4026 374.06761,206.59559 371.8759,216.1144 C 368.51727,230.70121 359.62765,236.87693 366.70306,248.11957 C 375.38177,261.90986 387.33653,272.20646 412.90124,273.15978 C 412.03229,279.07588 408.909,284.23947 403.17629,288.54617 L 422.66379,289.2744 C 422.19552,286.13468 422.12849,283.1509 422.38164,280.44218 C 422.47359,279.45832 422.56914,278.51609 422.72023,277.60391 C 421.03379,275.81187 419.70539,274.12184 418.99578,272.56225 C 443.91845,256.70768 455.36666,233.33799 460.02112,216.91733 C 448.91091,196.62276 430.07396,179.03819 416.21186,165.64183 z "
		 style="fill:#deb887;fill-opacity:1;fill-rule:evenodd;stroke:none;stroke-width:1px;stroke-linecap:butt;stroke-linejoin:miter;stroke-opacity:1" />
	  <path
		 inkscape:export-ydpi="14"
		 inkscape:export-xdpi="14"
		 inkscape:export-filename="c:\dev\chorus\artwork\chorusLabelled.png"
		 sodipodi:nodetypes="cssscsccsccsscssc"
		 id="path11731"
		 d="M 542.42227,271.0481 C 542.57426,287.79789 538.16596,299.568 523.26897,309.37644 C 499.74181,324.86711 472.49748,324.01363 448.78385,315.1106 C 425.07022,306.20755 425.02361,278.94111 429.93455,274.06608 C 436.57081,267.47835 454.43731,252.38052 463.37685,225.77842 C 464.7734,232.29446 471.39801,231.1989 473.10551,224.87303 C 481.38817,194.18774 473.67075,146.83118 462.16077,142.48219 C 459.55238,156.16193 484.72128,170.07573 468.54519,224.26942 C 457.01597,196.39658 429.95913,173.40034 414.82088,158.3728 C 411.83379,155.40755 410.76957,157.67624 413.51742,162.40085 C 390.18759,173.33994 359.19538,193.7737 343.2886,214.00829 C 322.69923,161.64155 376.4875,132.82464 398.31637,132.82464 C 404.9036,132.82464 402.08864,127.86224 392.84399,127.39229 C 387.35089,127.11304 366.59071,132.84599 361.83386,135.23903 C 418.50446,84.758498 482.96116,118.11388 494.08296,165.11703 C 501.56109,196.72126 493.32291,200.42739 493.77893,236.64314 C 494.16245,267.1003 519.16466,283.87452 542.42227,271.0481 z "
		 style="fill:url(#radialGradient35562);fill-opacity:1;fill-rule:evenodd;stroke:none;stroke-width:1px;stroke-linecap:butt;stroke-linejoin:miter;stroke-opacity:1" />
	  <path
		 inkscape:export-ydpi="14"
		 inkscape:export-xdpi="14"
		 inkscape:export-filename="c:\dev\chorus\artwork\chorusLabelled.png"
		 id="path10310"
		 d="M 186.48666,165.54744 C 183.12165,165.58907 180.05263,166.30938 175.9142,167.54162 C 144.43743,176.914 109.14716,207.26059 77.85981,239.17722 C 64.934206,252.36277 58.790784,262.71418 51.255853,273.32997 C 44.895933,282.29034 48.194619,292.00714 55.49405,296.71802 C 67.44402,304.43022 85.812732,315.72523 104.37161,320.62882 C 103.51491,322.06103 102.88035,323.51422 102.5289,324.92696 C 100.97205,331.18531 102.49075,336.42599 106.07609,340.84166 C 110.32994,346.08066 116.57664,347.80259 123.28225,348.25693 C 129.52269,348.67974 136.97871,347.33648 142.56143,342.75841 C 148.91896,346.84885 155.80427,351.82564 175.17713,357.70507 C 202.59493,366.02606 237.36283,355.7883 247.57198,327.92791 C 254.67756,308.53706 256.51947,297.8854 258.05229,283.49448 C 258.53396,278.97243 258.38248,275.10745 256.50904,271.4326 C 254.63563,267.75773 250.62032,265.02212 247.08827,263.76565 C 226.07675,258.52216 191.62257,238.40219 202.93271,222.41062 C 204.71374,219.57145 190.5345,229.43801 192.75183,226.82491 C 194.83988,224.18412 197.21942,221.73722 198.30293,217.7059 C 199.38646,213.67458 198.7503,209.95828 197.49677,204.54044 C 196.4353,199.95276 196.01804,194.76193 196.32205,190.89095 C 196.47405,188.95545 196.81656,187.34905 197.12823,186.49601 C 197.2615,186.13125 197.38496,186.03857 197.40462,186.03135 C 200.37451,183.91925 203.11661,180.91993 202.97878,176.73807 C 202.82524,172.07978 198.80211,168.98389 195.56194,167.63842 C 194.33556,167.12917 190.77974,165.49433 186.48666,165.54744 z "
		 style="fill:#000000;fill-opacity:1;fill-rule:evenodd;stroke:none;stroke-width:1px;stroke-linecap:butt;stroke-linejoin:miter;stroke-opacity:1"
		 sodipodi:nodetypes="csssscssscsssscccsssssssc" />
	  <path
		 inkscape:export-ydpi="14"
		 inkscape:export-xdpi="14"
		 inkscape:export-filename="c:\dev\chorus\artwork\chorusLabelled.png"
		 sodipodi:nodetypes="csssssssssssssss"
		 id="path10247"
		 d="M 181.00993,236.84938 C 184.8529,234.98442 187.63057,233.62331 191.18077,238.30112 C 198.88014,248.44599 209.08994,260.88597 226.68271,265.88404 C 243.73593,270.72881 253.92308,266.70778 252.58951,282.65962 C 251.36452,297.31282 249.91917,307.25752 243.18629,326.85681 C 234.76697,351.36536 205.47749,359.60145 181.39375,352.34278 C 158.24261,345.3652 154.97144,340.56644 145.31609,335.24459 C 139.46307,332.01852 140.67868,335.91765 138.40763,338.14806 C 131.76843,344.66844 118.06598,342.42262 114.22791,337.82546 C 110.38987,333.2283 108.47084,320.64662 123.05544,319.75945 C 130.99917,319.27625 137.64001,320.48532 133.03435,316.21076 C 130.65651,314.00813 130.73698,313.86961 132.26673,310.72645 C 133.1303,308.95211 135.30781,308.75565 131.88293,302.66127 C 125.92328,292.0564 118.8648,277.23552 113.65222,267.17446 C 111.06154,262.17405 115.69923,260.74511 119.21739,260.0771 C 143.12056,255.53851 163.00662,245.58624 181.00993,236.84938 z "
		 style="fill:#deb887;fill-opacity:1;fill-rule:evenodd;stroke:none;stroke-width:1px;stroke-linecap:butt;stroke-linejoin:miter;stroke-opacity:1" />
	  <path
		 inkscape:export-ydpi="14"
		 inkscape:export-xdpi="14"
		 inkscape:export-filename="c:\dev\chorus\artwork\chorusLabelled.png"
		 id="path10249"
		 d="M 130.58669,324.58686 C 127.85822,324.6423 123.4663,325.80473 123.8203,328.64956 C 125.11838,331.72538 131.26324,328.11552 131.94542,331.85656 C 132.2585,335.58053 138.87765,334.15268 137.24079,330.69049 C 137.03298,327.69167 134.77739,324.09184 130.58669,324.58686 z "
		 style="opacity:0.9;fill:#000000;fill-opacity:1;stroke:none;stroke-opacity:1" />
	  <path
		 inkscape:export-ydpi="14"
		 inkscape:export-xdpi="14"
		 inkscape:export-filename="c:\dev\chorus\artwork\chorusLabelled.png"
		 sodipodi:nodetypes="cssssssssssssss"
		 id="path10303"
		 d="M 107.33154,314.08306 C 113.16172,315.59745 115.36869,315.08342 117.91579,312.94246 C 121.76175,309.70974 122.46543,309.14216 124.42916,307.46763 C 125.7292,306.35907 127.02824,305.70976 125.24333,302.67717 C 119.98637,293.74543 109.48664,279.70486 105.97458,268.68762 C 103.92912,262.27108 106.09322,259.94662 110.04544,258.87855 C 133.46479,252.54967 171.52136,238.63617 185.41265,220.54331 C 189.86034,214.75032 191.17123,214.03954 188.47742,203.44593 C 185.73658,192.66735 185.99342,180.09335 190.37715,177.26774 C 194.58408,174.55607 193.83739,172.13675 190.64853,170.82509 C 187.4597,169.5134 186.31739,168.44625 177.62178,171.0532 C 149.76873,179.40357 113.43234,210.00186 82.363538,242.45407 C 69.951434,255.41883 64.311036,265.41831 56.58136,276.67174 C 52.521452,282.58244 55.46147,288.32133 59.023884,290.58693 C 71.310538,298.40087 90.41441,309.6888 107.33154,314.08306 z "
		 style="fill:#daa520;fill-opacity:1;fill-rule:evenodd;stroke:none;stroke-width:1px;stroke-linecap:butt;stroke-linejoin:miter;stroke-opacity:1" />
	  <path
		 inkscape:export-ydpi="14"
		 inkscape:export-xdpi="14"
		 style="fill:#000000;fill-opacity:1;fill-rule:evenodd;stroke:none;stroke-width:1px;stroke-linecap:butt;stroke-linejoin:miter;stroke-opacity:1"
		 d="M 556.85906,363.40999 C 562.01146,355.38109 573.38005,432.44409 595.70021,407.10231 C 602.9578,398.86223 614.83945,499.38888 617.67027,498.4193 C 648.86583,487.73427 642.26163,419.38464 643.48358,402.04709 C 641.29763,392.1343 635.84952,377.00772 650.97132,357.96289 C 662.18,343.84623 670.32984,329.68839 670.84806,321.21347 C 672.43641,295.23671 659.66003,301.7745 627.43649,300.20922 C 617.77096,299.73971 601.10075,300.18604 582.65918,302.57032 C 566.30524,304.68469 544.45065,299.204 507.38137,281.47898 C 483.01215,269.82659 543.17838,384.7283 556.85906,363.40999 z "
		 id="path9310"
		 sodipodi:nodetypes="csscssssss"
		 inkscape:export-filename="c:\dev\chorus\artwork\chorusLabelled.png" />
	  <path
		 inkscape:export-ydpi="14"
		 inkscape:export-xdpi="14"
		 inkscape:export-filename="c:\dev\chorus\artwork\chorusLabelled.png"
		 sodipodi:nodetypes="ccssss"
		 id="path9308"
		 d="M 562.78855,360.64259 C 568.13574,352.31018 593.22256,365.00424 599.26062,392.17118 C 621.31751,385.06908 657.83897,341.85694 658.86503,325.07694 C 660.20383,303.18223 649.43511,308.69264 622.27529,307.37334 C 606.90419,306.62668 570.5148,308.62805 542.73621,319.16425 C 522.33779,326.90121 551.25767,378.61087 562.78855,360.64259 z "
		 style="fill:#ff8c00;fill-opacity:1;fill-rule:evenodd;stroke:none;stroke-width:1px;stroke-linecap:butt;stroke-linejoin:miter;stroke-opacity:1" />
	  <path
		 inkscape:export-ydpi="14"
		 inkscape:export-xdpi="14"
		 inkscape:export-filename="c:\dev\chorus\artwork\chorusLabelled.png"
		 style="fill:url(#radialGradient2530);fill-opacity:1;fill-rule:evenodd;stroke:none;stroke-width:1px;stroke-linecap:butt;stroke-linejoin:miter;stroke-opacity:1"
		 d="M 562.78855,360.64259 C 568.13574,352.31018 593.22256,365.00424 599.26062,392.17118 C 621.31751,385.06908 657.83897,341.85694 658.86503,325.07694 C 660.20383,303.18223 649.43511,308.69264 622.27529,307.37334 C 606.90419,306.62668 570.5148,308.62805 542.73621,319.16425 C 522.33779,326.90121 551.25767,378.61087 562.78855,360.64259 z "
		 id="path11820"
		 sodipodi:nodetypes="ccssss" />
	  <path
		 inkscape:export-ydpi="14"
		 inkscape:export-xdpi="14"
		 inkscape:export-filename="c:\dev\chorus\artwork\chorusLabelled.png"
		 sodipodi:nodetypes="cssssssssssssscscsssssssc"
		 id="path9220"
		 d="M 672.14568,166.52938 C 667.54898,165.9025 662.93705,165.74148 658.44943,166.09122 C 629.2454,168.3672 611.791,189.65563 611.32871,213.01302 C 611.09296,224.9214 618.62929,244.18941 621.72653,236.6522 C 624.11853,230.83125 625.39815,227.05634 633.0329,220.06358 C 636.61817,216.77984 641.81161,213.41931 647.23804,213.15324 C 649.04015,213.06489 653.38223,211.69765 648.55684,218.86539 C 643.79677,226.1339 636.87463,232.99393 620.26142,241.78577 C 603.95648,250.41445 596.18374,250.50966 582.52961,254.30411 C 575.74938,256.18829 573.94435,260.01863 572.45962,264.73693 C 570.97475,269.45521 568.40879,274.39509 568.59524,281.37181 C 568.98273,295.88384 571.96569,303.63063 582.39115,317.09823 C 589.23778,325.94286 600.51081,330.31596 611.49502,331.82749 C 622.4792,333.33904 633.67079,332.55673 643.65149,331.87267 C 669.50158,330.10092 680.4835,318.31278 689.7125,311.88933 C 698.06337,315.61038 708.30106,314.03344 714.34089,308.87681 C 718.30324,305.49383 719.69389,301.38902 719.32856,297.40127 C 719.58349,297.48873 719.83686,297.57945 720.10237,297.64489 C 723.96911,298.59808 726.55519,297.4258 728.68509,296.42202 C 732.94485,294.41445 735.95493,290.90836 743.21776,286.58488 C 759.57497,276.84731 775.42165,260.84604 773.30994,241.01083 C 771.01236,219.4301 739.95333,208.81971 733.09126,206.73011 C 731.78437,206.33215 725.8345,204.85232 724.2852,203.78362 C 720.04275,200.85736 719.0451,198.44263 717.93119,195.79201 C 711.53925,180.58237 692.06454,169.24575 672.14568,166.52938 z "
		 style="fill:#000000;fill-opacity:1;fill-rule:evenodd;stroke:none;stroke-width:1px;stroke-linecap:butt;stroke-linejoin:miter;stroke-opacity:1" />
	  <path
		 inkscape:export-ydpi="14"
		 inkscape:export-xdpi="14"
		 inkscape:export-filename="c:\dev\chorus\artwork\chorusLabelled.png"
		 sodipodi:nodetypes="csssssssssssssss"
		 id="path9212"
		 d="M 655.60339,220.88972 C 657.18229,218.3885 658.43074,219.25202 659.89594,221.30465 C 673.3881,240.20657 673.56826,257.03434 707.5621,260.00752 C 709.28666,260.15837 709.56308,260.99045 708.46702,263.12128 C 705.27368,269.32957 697.85816,278.03452 694.42668,284.70581 C 692.48248,288.4856 692.76489,291.70438 696.06166,290.26889 C 702.55296,287.44245 705.38789,287.42716 708.17069,291.18828 C 710.95349,294.94941 711.65212,301.33383 707.1929,305.31338 C 702.73368,309.29294 695.41384,310.12346 690.33386,307.10652 C 685.42996,304.19412 686.90523,305.7674 683.96316,307.87831 C 673.89928,315.09906 665.34418,325.7283 642.18083,327.53451 C 622.77384,329.04783 600.35813,330.49009 589.48449,315.78029 C 579.6382,302.46031 574.90331,296.45195 577.24673,282.25963 C 579.36217,269.44803 579.85753,263.49045 590.93039,260.21362 C 603.53763,256.48273 608.55421,255.16168 625.28962,245.84375 C 642.02503,236.52579 650.37892,229.16601 655.60339,220.88972 z "
		 style="fill:#8f6f47;fill-opacity:1;fill-rule:evenodd;stroke:none;stroke-width:1px;stroke-linecap:butt;stroke-linejoin:miter;stroke-opacity:1" />
	  <path
		 inkscape:export-ydpi="14"
		 inkscape:export-xdpi="14"
		 inkscape:export-filename="c:\dev\chorus\artwork\chorusLabelled.png"
		 sodipodi:nodetypes="csssssssssssssss"
		 id="path9205"
		 d="M 622.58671,219.68057 C 617.2359,229.19351 617.24091,216.86019 617.25294,213.36349 C 617.32542,192.29805 637.24307,177.75279 661.36119,175.94615 C 699.87412,173.06125 708.90688,192.80065 711.84741,199.08973 C 719.63409,215.74363 721.61056,218.48153 727.3222,223.5008 C 732.26448,227.844 736.64949,223.90682 733.25969,220.11016 C 731.06696,217.65425 718.17795,209.37753 726.30523,211.85238 C 734.37994,214.31123 761.3941,220.28575 764.77205,240.90429 C 767.69584,258.75122 756.02571,274.00381 740.93098,282.98983 C 726.08912,291.82531 721.60548,296.54772 719.1308,290.66188 C 716.61312,284.67364 703.55171,287.42478 706.17972,278.75851 C 708.54728,270.95113 716.77074,263.78661 722.76185,258.3976 C 728.68505,253.06967 725.53429,250.60428 715.79127,253.97068 C 707.32459,256.89605 696.52278,258.73113 686.99181,249.97105 C 678.75446,242.40004 672.25485,238.90433 667.34836,216.85786 C 663.95482,201.60937 634.67434,198.19064 622.58671,219.68057 z "
		 style="fill:#4b301d;fill-opacity:1;fill-rule:evenodd;stroke:none;stroke-width:1px;stroke-linecap:butt;stroke-linejoin:miter;stroke-opacity:1" />
	  <path
		 inkscape:export-ydpi="14"
		 inkscape:export-xdpi="14"
		 inkscape:export-filename="c:\dev\chorus\artwork\chorusLabelled.png"
		 sodipodi:nodetypes="csssssss"
		 id="path9223"
		 d="M 692.49925,300.20682 C 691.83241,300.91202 692.20013,302.2397 693.41163,302.58559 C 694.2537,302.82598 695.09113,303.21172 695.55385,303.87839 C 696.0555,304.60126 697.01592,305.40193 698.11233,305.32068 C 698.91098,305.26151 699.20988,304.42755 698.83857,303.82695 C 696.46619,299.98956 703.90139,301.01602 707.07345,298.69733 C 708.02859,297.99916 706.4257,296.43477 705.0591,296.40124 C 699.88332,295.88287 695.8561,297.42153 692.49925,300.20682 z "
		 style="fill:#000000;fill-opacity:1;stroke:none;stroke-opacity:1" />
	  <path
		 inkscape:export-ydpi="14"
		 inkscape:export-xdpi="14"
		 inkscape:export-filename="c:\dev\chorus\artwork\chorusLabelled.png"
		 id="path9295"
		 d="M 666.56576,320.55963 C 660.50218,323.96852 652.92339,326.7039 642.19012,327.54085 C 622.78305,329.05416 600.36033,330.49805 589.48675,315.78826 C 588.02872,313.81587 586.75813,312.01759 585.62017,310.32201 C 583.64431,311.13149 581.76193,311.98872 580.01206,312.85577 C 573.75839,315.9544 568.58662,318.75133 567.61147,324.06691 C 565.93517,333.2043 565.78497,340.33559 566.28834,347.10964 C 566.42011,348.88479 567.02118,350.95299 568.75035,352.57542 C 570.47945,354.19784 572.11482,354.68804 573.20707,355.14659 C 581.32116,358.55317 592.62645,360.8924 602.41349,362.17649 C 610.21898,363.20059 614.69595,359.83888 615.36865,359.54347 C 634.8119,351.00325 649.55999,344.26214 658.43102,335.97241 C 663.2143,331.50247 666.01568,326.36127 666.56576,320.55963 z "
		 style="fill:#000000;fill-opacity:1;fill-rule:evenodd;stroke:none;stroke-width:1px;stroke-linecap:butt;stroke-linejoin:miter;stroke-opacity:1" />
	  <path
		 inkscape:export-ydpi="14"
		 inkscape:export-xdpi="14"
		 inkscape:export-filename="c:\dev\chorus\artwork\chorusLabelled.png"
		 id="path9291"
		 d="M 656.25348,330.02652 C 652.48422,330.90621 648.30947,331.55341 643.65149,331.87267 C 633.67079,332.55673 622.4792,333.33904 611.49502,331.82749 C 601.59031,330.4645 591.44614,326.76933 584.52892,319.57245 C 580.31688,321.76628 577.41057,324.01919 576.81799,326.06575 C 574.48121,334.13574 573.73621,340.31063 573.60226,346.2602 C 573.54841,348.64801 574.53438,349.00722 576.59556,349.8844 C 582.88624,352.56161 593.1708,354.78658 601.85167,355.92654 C 607.63403,356.68587 609.19449,354.79562 611.38357,353.9108 C 633.37322,345.02221 648.85807,338.26099 656.25348,330.02652 z "
		 style="fill:#a58458;fill-opacity:1;fill-rule:evenodd;stroke:none;stroke-width:1px;stroke-linecap:butt;stroke-linejoin:miter;stroke-opacity:1" />
	  <path
		 inkscape:export-ydpi="14"
		 inkscape:export-xdpi="14"
		 inkscape:export-filename="c:\dev\chorus\artwork\chorusLabelled.png"
		 sodipodi:nodetypes="csssss"
		 id="path9312"
		 d="M 619.47566,487.62187 C 629.19346,494.8408 634.89584,456.51353 633.34128,437.54818 C 631.64853,416.89652 643.05035,424.61102 639.20156,418.52837 C 624.01251,394.52361 638.3903,378.00333 630.59972,382.63597 C 613.18272,392.99296 584.75957,410.25123 591.08835,416.00821 C 614.64026,437.43234 609.7578,480.40297 619.47566,487.62187 z "
		 style="fill:#a29374;fill-opacity:1;fill-rule:evenodd;stroke:none;stroke-width:1px;stroke-linecap:butt;stroke-linejoin:miter;stroke-opacity:1" />
	  <path
		 inkscape:export-ydpi="14"
		 inkscape:export-xdpi="14"
		 inkscape:export-filename="c:\dev\chorus\artwork\chorusLabelled.png"
		 inkscape:transform-center-y="14.193178"
		 inkscape:transform-center-x="-28.711348"
		 style="fill:#a29374;fill-opacity:1;fill-rule:evenodd;stroke:none;stroke-width:1px;stroke-linecap:butt;stroke-linejoin:miter;stroke-opacity:1"
		 d="M 428.64715,328.55389 C 423.29652,337.20365 469.58684,330.05337 491.12663,323.55371 C 514.58176,316.47617 509.18119,326.40793 515.0439,322.05618 C 538.18083,304.88231 561.85365,309.86672 554.04224,305.92536 C 536.57848,297.11392 507.66513,282.83681 502.95458,288.7732 C 485.42462,310.86513 433.9978,319.90405 428.64715,328.55389 z "
		 id="path9314"
		 sodipodi:nodetypes="csssss" />
	  <path
		 transform="matrix(4.1790328,0,0,2.0531058,69.97501,454.7414)"
		 style="fill:url(#radialGradient35570);fill-opacity:1;fill-rule:evenodd;stroke-width:1pt"
		 sodipodi:type="arc"
		 sodipodi:ry="68.379425"
		 sodipodi:rx="68.379425"
		 sodipodi:cy="77.944687"
		 sodipodi:cx="79.895966"
		 id="path1399"
		 d="M 148.27539 77.944687 A 68.379425 68.379425 0 1 1  11.516541,77.944687 A 68.379425 68.379425 0 1 1  148.27539 77.944687 z"
		 inkscape:export-filename="c:\dev\chorus\artwork\chorusLabelled.png"
		 inkscape:export-xdpi="14"
		 inkscape:export-ydpi="14" />
	  <path
		 transform="matrix(1.4056819,0,0,1.4056819,86.974091,-148.15008)"
		 style="fill:url(#radialGradient35572);fill-opacity:1;fill-rule:evenodd;stroke-width:1pt"
		 sodipodi:type="arc"
		 sodipodi:ry="172.74803"
		 sodipodi:rx="172.74803"
		 sodipodi:cy="453.50235"
		 sodipodi:cx="224.57243"
		 id="path825"
		 d="M 397.32047 453.50235 A 172.74803 172.74803 0 1 1  51.824402,453.50235 A 172.74803 172.74803 0 1 1  397.32047 453.50235 z"
		 inkscape:export-filename="c:\dev\chorus\artwork\chorusLabelled.png"
		 inkscape:export-xdpi="14"
		 inkscape:export-ydpi="14" />
	  <path
		 style="fill:#0e7a0c;fill-opacity:0.59375;fill-rule:evenodd;stroke-width:1pt"
		 sodipodi:nodetypes="ccczcccczzzcccccccccczzccccczccccccccccc"
		 id="path846"
		 d="M 445.51734,640.46381 C 413.51013,636.7435 413.19182,582.57421 444.99167,578.18892 C 464.97131,589.43144 483.53036,541.99096 493.72408,560.91857 C 485.30391,596.77745 531.05093,588.65504 539.78795,561.11213 C 552.779,538.88668 546.26993,580.31073 551.2517,589.12514 C 562.87867,617.67961 526.88803,657.5814 500.35297,633.43783 C 481.37704,616.57814 463.96574,634.50196 445.51734,640.46381 z M 512.47242,660.18432 C 515.68086,672.58398 522.20712,673.69871 526.46699,660.62618 C 530.72689,648.24247 514.72242,650.54023 512.47242,660.18432 L 512.47242,660.18432 z M 270.16049,359.89289 C 243.71932,386.09261 235.90309,423.91199 227.1109,458.66236 C 233.64151,483.1865 253.34494,508.17003 230.6512,530.57136 C 216.14264,562.10088 169.44331,542.26246 181.07999,510.19698 C 180.49054,472.21205 175.83978,431.98106 194.09363,397.01156 C 204.09254,374.7764 223.01722,348.01174 250.34587,350.55637 C 257.55796,352.15934 263.95802,356.04713 270.16049,359.89289 z M 328.61275,447.57133 C 326.73691,417.0945 360.02306,419.70295 352.51635,383.29401 C 351.23752,352.40013 286.77044,367.7922 305.65273,330.94037 C 323.22874,303.39728 321.13287,289.25965 365.13159,282.15207 C 409.13027,273.09606 456.20315,262.5059 530.20925,317.08933 C 602.26698,371.67277 470.2788,328.38798 454.4518,348.41923 C 429.037,369.82701 440.49308,416.68695 410.84835,426.5192 C 385.2278,442.94172 387.26672,476.89802 382.98885,503.51007 C 388.08697,525.31835 455.57051,509.83426 424.01526,539.75364 C 391.92904,547.89485 370.41958,515.5905 348.10973,498.55058 C 336.80822,487.86414 330.48859,476.0997 328.61275,447.57133 z M 550.73147,402.7579 C 577.98089,401.01187 589.16195,432.2772 586.76241,454.9671 C 571.91546,479.72096 604.59401,502.77615 620.74549,477.34055 C 638.15759,446.58213 609.75434,408.09286 583.16078,391.80281 C 571.40063,381.38527 548.23394,382.807 550.73147,402.7579 z M 281.85095,663.84484 C 316.08137,663.32797 350.63109,655.55639 384.65134,662.70631 C 397.92306,680.54124 435.34619,693.01154 435.84587,711.65715 C 409.42499,730.13063 375.11418,712.78046 347.52184,705.62122 C 325.61489,698.97938 294.48218,703.58778 283.16249,678.95874 C 281.56758,674.13381 280.73867,668.88604 281.85095,663.84484 z "
		 inkscape:export-filename="c:\dev\chorus\artwork\chorusLabelled.png"
		 inkscape:export-xdpi="14"
		 inkscape:export-ydpi="14" />
	  <path
		 style="fill:url(#linearGradient2270);fill-opacity:1;fill-rule:evenodd;stroke-width:1pt"
		 sodipodi:nodetypes="ccc"
		 id="path869"
		 d="M 519.64841,684.43307 C 424.82934,798.29836 109.43275,682.96801 182.51857,457.36666 C 244.35707,378.8389 374.39746,436.05505 519.64841,684.43307 z "
		 inkscape:export-filename="c:\dev\chorus\artwork\chorusLabelled.png"
		 inkscape:export-xdpi="14"
		 inkscape:export-ydpi="14" />
	  <path
		 style="fill:url(#linearGradient2267);fill-opacity:1;fill-rule:evenodd;stroke-width:1pt"
		 sodipodi:nodetypes="ccc"
		 id="path863"
		 d="M 341.14731,282.62797 C 447.43947,217.84892 663.68892,313.676 631.98143,494.1708 C 589.05491,551.4062 511.32086,258.75185 341.14731,282.62797 z "
		 inkscape:export-filename="c:\dev\chorus\artwork\chorusLabelled.png"
		 inkscape:export-xdpi="14"
		 inkscape:export-ydpi="14" />
	  <path
		 transform="matrix(3.5128114,0,0,2.3620595,227.16402,295.94379)"
		 style="fill:url(#linearGradient35578);fill-opacity:1;fill-rule:evenodd;stroke-width:1pt"
		 sodipodi:type="arc"
		 sodipodi:ry="49.665058"
		 sodipodi:rx="49.665058"
		 sodipodi:cy="31.15876"
		 sodipodi:cx="51.104626"
		 id="path868"
		 d="M 100.76968 31.15876 A 49.665058 49.665058 0 1 1  1.4395676,31.15876 A 49.665058 49.665058 0 1 1  100.76968 31.15876 z"
		 inkscape:export-filename="c:\dev\chorus\artwork\chorusLabelled.png"
		 inkscape:export-xdpi="14"
		 inkscape:export-ydpi="14" />
	  <path
		 transform="matrix(3.6642267,0,0,2.8768696,220.92997,493.47096)"
		 style="fill:url(#linearGradient35580);fill-opacity:1;fill-rule:evenodd;stroke-width:1pt"
		 sodipodi:type="arc"
		 sodipodi:ry="49.665058"
		 sodipodi:rx="49.665058"
		 sodipodi:cy="31.15876"
		 sodipodi:cx="51.104626"
		 id="path884"
		 d="M 100.76968 31.15876 A 49.665058 49.665058 0 1 1  1.4395676,31.15876 A 49.665058 49.665058 0 1 1  100.76968 31.15876 z"
		 inkscape:export-filename="c:\dev\chorus\artwork\chorusLabelled.png"
		 inkscape:export-xdpi="14"
		 inkscape:export-ydpi="14" />
	  <flowRoot
		 xml:space="preserve"
		 id="flowRoot2248"
		 style="font-size:15.80379105px;fill:#1e364d;fill-opacity:0.97482449"
		 transform="translate(-99.338112,-22.576842)"
		 inkscape:export-filename="c:\dev\chorus\artwork\chorusLabelled.png"
		 inkscape:export-xdpi="14"
		 inkscape:export-ydpi="14"><flowRegion
		   id="flowRegion2250"><rect
			 id="rect2252"
			 width="1272.7921"
			 height="412.95035"
			 x="260.2153"
			 y="746.89209"
			 style="font-size:15.80379105px;fill:#1e364d;fill-opacity:0.97482449" /></flowRegion><flowPara
		   id="flowPara2254"
		   style="font-size:144px;fill:#1e364d;fill-opacity:0.97482449">Chorus</flowPara></flowRoot>    </g>
	<g
	   transform="matrix(-0.134786,-0.603324,0.712838,0,299.9323,1053.1654)"
	   id="g4084" />
	<g
	   transform="matrix(-0.134786,-0.603324,0.712838,0,-290.53226,-267.55301)"
	   id="g8602" />
	<g
	   transform="matrix(-0.134786,-0.603324,0.712838,0,1038.8127,408.54694)"
	   id="g30230" />
	<g
	   transform="matrix(-0.134786,-0.603324,0.712838,0,448.34812,-912.17151)"
	   id="g30240" />
  </g>
</svg>
