<?xml version="1.0" encoding="UTF-8" standalone="no"?>
<svg
   xmlns:dc="http://purl.org/dc/elements/1.1/"
   xmlns:cc="http://creativecommons.org/ns#"
   xmlns:rdf="http://www.w3.org/1999/02/22-rdf-syntax-ns#"
   xmlns:svg="http://www.w3.org/2000/svg"
   xmlns="http://www.w3.org/2000/svg"
   xmlns:sodipodi="http://sodipodi.sourceforge.net/DTD/sodipodi-0.dtd"
   xmlns:inkscape="http://www.inkscape.org/namespaces/inkscape"
   version="1.1"
   id="Ebene_1"
   x="0px"
   y="0px"
   width="90px"
   height="90px"
   viewBox="0 0 90 90"
   enable-background="new 0 0 90 90"
   xml:space="preserve"
   inkscape:version="0.48.0 r9654"
   sodipodi:docname="FlatClonSourceIcons.svg"><metadata
   id="metadata13"><rdf:RDF><cc:Work
	   rdf:about=""><dc:format>image/svg+xml</dc:format><dc:type
		 rdf:resource="http://purl.org/dc/dcmitype/StillImage" /><dc:title /></cc:Work></rdf:RDF></metadata><defs
   id="defs11"><linearGradient
	 id="linearGradient1400"><stop
	   id="stop1401"
	   offset="0.0000000"
	   style="stop-color:#000000;stop-opacity:0.67843139;" /><stop
	   id="stop1403"
	   offset="0.56999999"
	   style="stop-color:#000000;stop-opacity:0.32941177;" /><stop
	   id="stop1402"
	   offset="1.0000000"
	   style="stop-color:#000000;stop-opacity:0.00000000;" /></linearGradient><linearGradient
	 id="linearGradient853"><stop
	   id="stop854"
	   offset="0.0000000"
	   style="stop-color:#e3f9ff;stop-opacity:1.0000000;" /><stop
	   id="stop867"
	   offset="0.36194703"
	   style="stop-color:#73bee7;stop-opacity:1.0000000;" /><stop
	   id="stop856"
	   offset="0.62534887"
	   style="stop-color:#438ec5;stop-opacity:1.0000000;" /><stop
	   id="stop1185"
	   offset="0.72607356"
	   style="stop-color:#477daf;stop-opacity:1.0000000;" /><stop
	   id="stop855"
	   offset="1.0000000"
	   style="stop-color:#020407;stop-opacity:1.0000000;" /></linearGradient><linearGradient
	 id="linearGradient865"><stop
	   id="stop866"
	   offset="0.00000000"
	   style="stop-color:#ffffff;stop-opacity:1.0000000;" /><stop
	   id="stop868"
	   offset="1.0000000"
	   style="stop-color:#ffffff;stop-opacity:0.00000000;" /></linearGradient><linearGradient
	 id="linearGradient3078"><stop
	   id="stop3080"
	   offset="0.00000000"
	   style="stop-color:#ffffff;stop-opacity:1.0000000;" /><stop
	   id="stop3082"
	   offset="1.0000000"
	   style="stop-color:#ffffff;stop-opacity:0.00000000;" /></linearGradient><linearGradient
	 id="linearGradient3085"><stop
	   id="stop3087"
	   offset="0.00000000"
	   style="stop-color:#ffffff;stop-opacity:1.0000000;" /><stop
	   id="stop3089"
	   offset="1.0000000"
	   style="stop-color:#ffffff;stop-opacity:0.00000000;" /></linearGradient><linearGradient
	 id="linearGradient3092"><stop
	   id="stop3094"
	   offset="0.00000000"
	   style="stop-color:#ffffff;stop-opacity:1.0000000;" /><stop
	   id="stop3096"
	   offset="1.0000000"
	   style="stop-color:#ffffff;stop-opacity:0.00000000;" /></linearGradient><linearGradient
	 id="linearGradient11719"><stop
	   style="stop-color:black;stop-opacity:0;"
	   offset="0"
	   id="stop11721" /><stop
	   style="stop-color:black;stop-opacity:0;"
	   offset="0.60000002"
	   id="stop11723" /><stop
	   style="stop-color:black;stop-opacity:1;"
	   offset="1"
	   id="stop11725" /></linearGradient><linearGradient
	 id="linearGradient3104"><stop
	   style="stop-color:black;stop-opacity:0;"
	   offset="0"
	   id="stop3106" /><stop
	   style="stop-color:black;stop-opacity:0;"
	   offset="0.60000002"
	   id="stop3108" /><stop
	   style="stop-color:black;stop-opacity:1;"
	   offset="1"
	   id="stop3110" /></linearGradient><linearGradient
	 id="linearGradient3113"><stop
	   style="stop-color:black;stop-opacity:0;"
	   offset="0"
	   id="stop3115" /><stop
	   style="stop-color:black;stop-opacity:0;"
	   offset="0.60000002"
	   id="stop3117" /><stop
	   style="stop-color:black;stop-opacity:1;"
	   offset="1"
	   id="stop3119" /></linearGradient><linearGradient
	 id="linearGradient3122"><stop
	   style="stop-color:black;stop-opacity:0;"
	   offset="0"
	   id="stop3124" /><stop
	   style="stop-color:black;stop-opacity:0;"
	   offset="0.60000002"
	   id="stop3126" /><stop
	   style="stop-color:black;stop-opacity:1;"
	   offset="1"
	   id="stop3128" /></linearGradient></defs><sodipodi:namedview
   pagecolor="#ffffff"
   bordercolor="#666666"
   borderopacity="1"
   objecttolerance="10"
   gridtolerance="10"
   guidetolerance="10"
   inkscape:pageopacity="0"
   inkscape:pageshadow="2"
   inkscape:window-width="1399"
   inkscape:window-height="878"
   id="namedview9"
   showgrid="false"
   inkscape:zoom="2"
   inkscape:cx="194.74316"
   inkscape:cy="-5.25"
   inkscape:window-x="-8"
   inkscape:window-y="-8"
   inkscape:window-maximized="1"
   inkscape:current-layer="Ebene_1" />


<g
   id="g3034"
   transform="matrix(0.68516061,0,0,0.68516061,180.61102,-17.53536)"><path
	 style="fill:#0c8597;fill-opacity:1"
	 id="path3"
	 d="M 72.867,21.189 68.81,17.132 c -2.04,-2.04 -4.752,-3.163 -7.637,-3.163 -2.886,0 -5.598,1.123 -7.638,3.163 l -32.98,32.982 19.33,19.33 32.981,-32.982 c 2.04,-2.04 3.163,-4.751 3.163,-7.636 0,-2.885 -1.122,-5.597 -3.162,-7.637 z"
	 inkscape:connector-curvature="0" /><path
	 style="fill:#0c8597;fill-opacity:1"
	 id="path5"
	 d="m 23.313,54.883 -10.17,10.17 5.513,5.513 10.17,-10.171 -5.513,-5.512 z m -4.03,7.456 2.134,-2.135 2.056,2.057 -2.135,2.133 -2.055,-2.055 z"
	 inkscape:connector-curvature="0" /><path
	 style="fill:#0c8597;fill-opacity:1"
	 id="path7"
	 d="m 29.604,61.172 -10.17,10.171 5.514,5.514 10.17,-10.17 -5.514,-5.515 z M 27.135,70.19 25.078,68.135 27.213,66 l 2.055,2.056 -2.133,2.134 z"
	 inkscape:connector-curvature="0" /></g>
<text
   xml:space="preserve"
   style="font-size:40px;font-style:normal;font-weight:normal;line-height:125%;letter-spacing:0px;word-spacing:0px;fill:#000000;fill-opacity:1;stroke:none;font-family:Sans"
   x="253.24211"
   y="71.42424"
   id="text3023"
   sodipodi:linespacing="125%"><tspan
	 sodipodi:role="line"
	 id="tspan3025"
	 x="253.24211"
	 y="71.42424"
	 style="font-size:9px">Network icon designed by Stephen Boak from The Noun Project</tspan></text>

<path
   inkscape:connector-curvature="0"
   d="m 214.37868,49.21425 c -11.60558,0 -21.00862,9.40304 -21.00862,21.00862 0,11.60558 9.40304,21.00862 21.00862,21.00862 11.60559,0 21.00862,-9.40304 21.00862,-21.00862 0,-11.60558 -9.40303,-21.00862 -21.00862,-21.00862 z m 17.27287,23.72924 c -0.56303,-0.0441 -1.1164,-0.0975 -1.65044,-0.16639 -0.27143,-1.11808 -1.0874,-2.02775 -2.15254,-2.43784 -0.16891,-1.94372 -0.52101,-3.73071 -0.96766,-5.32401 0.7248,-0.63614 1.18657,-1.55589 1.18657,-2.59372 0,-0.0769 -0.0172,-0.14706 -0.0223,-0.22227 0.74203,-0.20505 1.32859,-0.30463 1.70086,-0.35042 1.36262,2.48952 2.13868,5.34291 2.13868,8.37403 0.001,0.9269 -0.0929,1.83069 -0.2332,2.72062 z m -8.9795,11.44424 -0.0714,0.15378 c -1.95591,-0.30967 -3.67903,-0.87186 -5.19417,-1.61052 0.15756,-0.45127 0.26008,-0.92816 0.26008,-1.43447 0,-1.66683 -0.94749,-3.10339 -2.32691,-3.84206 0.39454,-1.72985 0.88866,-3.26516 1.45337,-4.63828 0.23068,0.0361 0.46219,0.0706 0.70253,0.0706 0.91304,0 1.75968,-0.28068 2.46011,-0.75757 0.97144,0.53866 2.02607,1.02732 3.16768,1.45673 0.0739,1.28279 0.82396,2.37818 1.91137,2.92903 -0.36934,2.41725 -1.10674,4.99038 -2.36263,7.67277 z m -15.48924,1.77774 -0.21009,-0.25336 c -1.7643,-2.10632 -3.33911,-8.11563 -2.33027,-14.69805 0.48151,1.47438 1.07354,2.93364 1.80548,4.34458 0.71471,1.37775 1.63783,2.84835 2.79877,4.27232 -0.21387,0.51303 -0.3332,1.07564 -0.3332,1.66514 0,1.83405 1.1269,3.40045 2.72188,4.05298 -0.0239,0.63278 -0.0412,1.27396 -0.0441,1.93532 -1.54624,-0.24665 -3.02524,-0.69245 -4.40845,-1.31893 z m 1.32985,-32.41714 c 0.0718,0.76093 0.20336,1.7643 0.44286,2.9202 -1.22775,1.18825 -2.26011,2.44666 -3.1097,3.73239 0.11135,-2.42439 0.5727,-4.54584 1.30968,-6.10721 0.44202,-0.20168 0.89497,-0.37941 1.35716,-0.54538 z m 8.86143,0.6206 c 0.97438,0.51135 2.9118,2.45674 4.65383,5.63535 -0.59328,0.63236 -0.96261,1.47901 -0.96261,2.41725 0,0.13992 0.0256,0.27185 0.0412,0.40673 -0.68194,0.52815 -1.36388,1.12018 -2.03616,1.80548 -0.48908,-0.18782 -1.01724,-0.30253 -1.57481,-0.30253 -0.80547,0 -1.55085,0.23278 -2.19834,0.6122 -1.82481,-2.416 -2.86557,-5.0009 -3.45844,-7.20974 1.51725,-1.28405 3.33995,-2.43616 5.53535,-3.36474 z m 4.20887,15.86571 c 0.17815,-0.4769 0.28908,-0.98657 0.28908,-1.52481 0,-0.89413 -0.27059,-1.72355 -0.72816,-2.41599 0.42101,-0.42227 0.84665,-0.80379 1.27186,-1.14875 0.55211,0.42899 1.23111,0.6958 1.97817,0.73362 0.37144,1.35926 0.66682,2.86726 0.8206,4.50341 -0.48572,0.20882 -0.90211,0.53194 -1.24455,0.92312 -0.84959,-0.32312 -1.64288,-0.68068 -2.387,-1.0706 z m -8.89841,6.94965 c -0.5832,0.0802 -1.12312,0.27353 -1.60884,0.56135 -0.90127,-1.15421 -1.62901,-2.33406 -2.20507,-3.44331 -0.72353,-1.3933 -1.30631,-2.84667 -1.76094,-4.31349 1.18825,-0.7811 1.97817,-2.12356 1.97817,-3.6534 0,-1.36598 -0.64286,-2.57146 -1.62607,-3.37483 0.63278,-1.09413 1.4038,-2.17817 2.32146,-3.21936 0.75253,2.27061 1.93069,4.77358 3.75802,7.1173 -0.26345,0.56429 -0.42227,1.18657 -0.42227,1.8517 0,1.20548 0.4874,2.29792 1.27732,3.08953 -0.67564,1.58573 -1.25506,3.37777 -1.71178,5.38451 z m 15.44007,-17.76825 c -0.37731,0.0924 -0.8,0.21008 -1.26009,0.35756 -0.61346,-0.54034 -1.40884,-0.88068 -2.29583,-0.88068 -0.0513,0 -0.10084,0.0139 -0.15168,0.0155 -1.08068,-2.00212 -2.28279,-3.65886 -3.43197,-4.88787 2.82608,1.15506 5.27569,3.03071 7.13957,5.39544 z m -13.62115,-6.69335 c -1.19665,0.61555 -2.28237,1.29413 -3.26684,2.02103 -0.0929,-0.69581 -0.14033,-1.27564 -0.1626,-1.70464 1.07186,-0.20546 2.17481,-0.32353 3.30465,-0.32353 0.0429,0 0.0819,0.005 0.12479,0.007 z m -17.63211,17.50018 c 0,-5.59249 2.64666,-10.56944 6.74292,-13.77661 -0.37269,1.74203 -0.5521,3.71852 -0.50378,5.82317 -1.62229,0.64118 -2.7765,2.21767 -2.7765,4.06559 0,1.44455 0.70799,2.71347 1.78657,3.51012 -0.90295,4.87778 -0.4979,9.77951 0.60673,13.40728 -3.58365,-3.20886 -5.85594,-7.85302 -5.85594,-13.02955 z m 17.43715,17.50397 v -0.0908 c 0.002,-0.65337 0.0189,-1.28111 0.0416,-1.90128 0.48698,-0.12143 0.94329,-0.31471 1.35086,-0.58278 1.28573,0.67017 2.71137,1.229 4.28408,1.64119 -1.76221,0.59833 -3.64332,0.93657 -5.60594,0.93657 -0.0244,4.2e-4 -0.0462,-0.003 -0.0706,-0.003 z m 11.66525,-4.42316 c 0.84623,-2.21389 1.38867,-4.35215 1.68573,-6.38746 0.81724,-0.26681 1.5017,-0.81724 1.937,-1.54371 0.47395,0.0613 0.96976,0.1042 1.46514,0.14874 -0.96934,3.04204 -2.75423,5.71224 -5.08787,7.78243 z"
   id="path3-1"
   style="fill:#0c8597;fill-opacity:1" /><g
   id="g4402"
   transform="matrix(0.71925311,0,0,0.71925311,122.36361,13.324514)"><g
	 transform="matrix(0.10703614,0,0,0.10703614,181.98869,169.98897)"
	 id="g4246"><path
	   inkscape:export-ydpi="35.299999"
	   inkscape:export-xdpi="35.299999"
	   inkscape:export-filename="E:\Users\John\Desktop\chorus3.png"
	   transform="matrix(0.53776887,0,0,0.53364952,-916.06084,-39.982867)"
	   d="m 797.40625,-260.21875 c -33.48909,0.69997 -69.51811,14.13434 -103.21875,44.375 a 8.7670595,8.7670595 0 0 0 7.40625,15.125 c -6.74019,4.68124 -13.27736,10.1064 -19.34375,16.28125 -24.37491,24.81074 -39.42848,63.38938 -21.1875,110.125 a 8.7670595,8.7670595 0 0 0 15.0625,2.21875 c 24.78908,-31.76576 75.87391,-66.05659 113.53125,-83.84375 a 8.7670595,8.7670595 0 0 0 0.5625,-0.3125 c 24.03854,23.41024 57.17804,54.51025 74.96875,90.46875 a 8.7670595,8.7670595 0 0 0 -4.78125,5.21875 C 846.34824,-18.420784 818.84723,4.9965326 807,16.84375 c -4.93336,4.933358 -5.9945,10.670112 -6.625,17.46875 -0.6305,6.798638 -0.0619,14.65139 2.1875,22.84375 4.49872,16.38472 16.37808,34.25337 38.84375,42.75 41.29904,15.61951 89.84992,17.26 131.65625,-10.46875 26.77629,-17.75981 36.0479,-41.962111 35.7813,-71.5625 A 8.7670595,8.7670595 0 0 0 995.8125,10.3125 C 979.07798,19.609453 963.13099,18.045503 950.4375,9.15625 937.74401,0.2669968 928.28906,-16.6246 928,-39.75 c -0.37052,-29.641411 2.76569,-45.39884 4.59375,-61.625 1.82806,-16.22616 2.08048,-32.72034 -4.3125,-59.9375 -13.11832,-55.84923 -66.94135,-100.24257 -130.875,-98.90625 z m -5.375,88.84375 c -0.0689,-0.23926 0.0741,-0.21394 0.0937,0.1875 -0.0103,-0.0325 -0.0859,-0.16026 -0.0937,-0.1875 z"
	   id="path10214"
	   style="fill:#ffffff;fill-opacity:1;fill-rule:evenodd;stroke:#0c8597;stroke-width:4.22868729;stroke-miterlimit:4;stroke-opacity:1;stroke-dasharray:none"
	   inkscape:original="M 797.59375 -251.46875 C 766.29791 -250.81462 732.39465 -238.35322 700.03125 -209.3125 C 707.9339 -213.31738 742.4367 -222.90483 751.5625 -222.4375 C 766.92081 -221.65101 771.59973 -213.34375 760.65625 -213.34375 C 724.39149 -213.34375 635.01322 -165.13876 669.21875 -77.5 C 695.64504 -111.36375 747.14792 -145.56779 785.90625 -163.875 C 781.3412 -171.7819 783.09998 -175.55628 788.0625 -170.59375 C 813.21197 -145.44428 858.15873 -106.95931 877.3125 -60.3125 C 904.18615 -151.00877 862.38539 -174.29364 866.71875 -197.1875 C 885.84052 -189.9092 898.6664 -110.66607 884.90625 -59.3125 C 882.06955 -48.725791 871.03887 -46.876259 868.71875 -57.78125 C 853.86732 -13.261089 824.21247 12.006291 813.1875 23.03125 C 805.02885 31.189896 805.10403 76.818997 844.5 91.71875 C 883.89595 106.6185 929.13262 108.04953 968.21875 82.125 C 992.96745 65.710021 1000.315 46.000482 1000.0625 17.96875 C 961.42416 39.434492 919.88713 11.346826 919.25 -39.625 C 918.49239 -100.23415 932.17358 -106.42099 919.75 -159.3125 C 907.62455 -210.93476 857.34035 -252.71755 797.59375 -251.46875 z "
	   inkscape:radius="8.7661829"
	   sodipodi:type="inkscape:offset" /><path
	   inkscape:connector-curvature="0"
	   inkscape:export-ydpi="35.299999"
	   inkscape:export-xdpi="35.299999"
	   inkscape:export-filename="E:\Users\John\Desktop\chorus3.png"
	   sodipodi:nodetypes="cssscsccsccsscssc"
	   id="path9333"
	   d="m -379.30162,-29.993107 c 0.13465,14.83803 -3.77051,25.2647403 -16.9672,33.9536803 -20.84185,13.7226197 -44.97661,12.9665497 -65.98365,5.07968 -21.00703,-7.88689 -21.04832,-32.0412303 -16.6979,-36.3598403 5.87882,-5.83583 21.7061,-19.21044 29.62531,-42.77627 1.23715,5.77232 7.10565,4.80181 8.61826,-0.80205 7.33731,-27.182976 0.50073,-69.134423 -9.69554,-72.987033 -2.31068,12.11838 19.98553,24.44411 5.65572,72.452313 -10.21331,-24.691525 -34.18198,-45.063053 -47.5924,-58.375403 -2.64615,-2.6268 -3.58891,-0.61705 -1.15469,3.56831 -20.66704,9.69053 -48.1219,27.792055 -62.21314,45.717137 -18.23937,-46.389777 29.40969,-71.917627 48.74709,-71.917627 5.83539,0 3.34172,-4.396 -4.84778,-4.81232 -4.86614,-0.24737 -23.25682,4.83124 -27.47074,6.95114 50.20241,-44.71885 107.30224,-15.17054 117.15464,26.46783 6.6246,27.99703 -0.6733,31.280155 -0.26933,63.362363 0.33974,26.98088 22.48829,41.84055 43.09135,30.47809 z"
	   style="fill:#ffffff;fill-opacity:1;fill-rule:evenodd;stroke:#0c8597;stroke-width:1.21354926;stroke-miterlimit:4;stroke-opacity:1;stroke-dasharray:none" /><path
	   inkscape:connector-curvature="0"
	   inkscape:export-ydpi="35.299999"
	   inkscape:export-xdpi="35.299999"
	   inkscape:export-filename="E:\Users\John\Desktop\chorus3.png"
	   style="fill:#ffffff;fill-opacity:1;fill-rule:evenodd;stroke:#0c8597;stroke-width:1.21354926;stroke-miterlimit:4;stroke-opacity:1;stroke-dasharray:none"
	   d="m -379.30162,-29.993107 c 0.13465,14.83803 -3.77051,25.2647403 -16.9672,33.9536803 -20.84185,13.7226197 -44.97661,12.9665497 -65.98365,5.07968 -21.00703,-7.88689 -21.04832,-32.0412303 -16.6979,-36.3598403 5.87882,-5.83583 21.7061,-19.21044 29.62531,-42.77627 1.23715,5.77232 7.10565,4.80181 8.61826,-0.80205 7.33731,-27.182976 0.50073,-69.134423 -9.69554,-72.987033 -2.31068,12.11838 19.98553,24.44411 5.65572,72.452313 -10.21331,-24.691525 -34.18198,-45.063053 -47.5924,-58.375403 -2.64615,-2.6268 -3.58891,-0.61705 -1.15469,3.56831 -20.66704,9.69053 -48.1219,27.792055 -62.21314,45.717137 -18.23937,-46.389777 29.40969,-71.917627 48.74709,-71.917627 5.83539,0 3.34172,-4.396 -4.84778,-4.81232 -4.86614,-0.24737 -23.25682,4.83124 -27.47074,6.95114 50.20241,-44.71885 107.30224,-15.17054 117.15464,26.46783 6.6246,27.99703 -0.6733,31.280155 -0.26933,63.362363 0.33974,26.98088 22.48829,41.84055 43.09135,30.47809 z"
	   id="path11713"
	   sodipodi:nodetypes="cssscsccsccsscssc" /><path
	   inkscape:export-ydpi="35.299999"
	   inkscape:export-xdpi="35.299999"
	   inkscape:export-filename="E:\Users\John\Desktop\chorus3.png"
	   transform="matrix(0.53322838,0,0,0.52932943,-912.55715,-39.503017)"
	   d="M 728.3125,-130.09375 A 8.6316099,8.6316099 0 0 0 723.125,-128.5 c -16.83244,12.03947 -32.67276,25.22534 -45.21875,38.65625 a 8.6316099,8.6316099 0 0 0 -2.21875,7.28125 c 2.64643,16.225297 3.85082,43.292469 -4.25,56.65625 -6.18354,10.200886 -11.76779,13.996302 -16.125,15.28125 -4.35721,1.2849476 -8.49193,0.427224 -12.96875,-1.875 -8.95365,-4.604448 -16.53125,-14.875 -16.53125,-14.875 a 8.6316099,8.6316099 0 0 0 -15.375,2.53125 c -5.23705,18.0834087 -6.09094,38.453886 2.03125,56.96875 8.12219,18.514864 25.37187,34.384466 53.15625,43.09375 a 8.6316099,8.6316099 0 0 0 1.9375,0.34375 l 85.34375,6.5625 A 8.6316099,8.6316099 0 0 0 758.25,80.78125 L 805.21875,50.3125 a 8.6316099,8.6316099 0 0 0 3.9375,-7.8125 c -0.18487,-2.867183 -0.16388,-5.559865 0.0625,-8 0.59447,-6.407885 1.14359,-9.300904 4.1875,-12.34375 1.16882,-1.168406 2.64036,-2.594979 4.1875,-4.09375 a 8.6316099,8.6316099 0 0 0 -0.375,-12.71875 l -21.375,-18.375 -8.9375,-35.75 a 8.6316099,8.6316099 0 0 0 -1.28125,-2.8125 l -48.0625,-69.3125 -1.3125,-3.53125 a 8.6316099,8.6316099 0 0 0 -7.9375,-5.65625 z"
	   id="path10224"
	   style="fill:#ffffff;fill-opacity:1;fill-rule:evenodd;stroke:#0c8597;stroke-width:4.29950094;stroke-miterlimit:4;stroke-opacity:1;stroke-dasharray:none"
	   inkscape:original="M 728.15625 -121.46875 C 711.67036 -109.67715 696.20781 -96.772203 684.21875 -83.9375 C 686.9836 -66.98615 689.35199 -38.824314 678.8125 -21.4375 C 651.1745 24.156434 618.71875 -22.4375 618.71875 -22.4375 C 609.0749 10.862468 616.26483 50.683291 668.21875 66.96875 L 753.5625 73.53125 L 800.53125 43.0625 C 800.3199 39.784622 800.35196 36.630539 800.625 33.6875 C 801.26087 26.833378 802.33714 21.036119 807.3125 16.0625 C 808.55402 14.821415 810.04424 13.376065 811.59375 11.875 L 788.125 -8.3125 L 778.53125 -46.6875 L 729.84375 -116.875 L 728.15625 -121.46875 z "
	   inkscape:radius="8.6307468"
	   sodipodi:type="inkscape:offset" /><path
	   inkscape:connector-curvature="0"
	   inkscape:export-ydpi="35.299999"
	   inkscape:export-xdpi="35.299999"
	   inkscape:export-filename="E:\Users\John\Desktop\chorus3.png"
	   id="path10208"
	   d="m -524.2836,-103.80001 c -8.79076,6.241636 -17.03582,13.072609 -23.42873,19.866393 1.4743,8.97285 2.7372,23.87975 -2.88277,33.0831 -14.73736,24.1342 -32.04368,-0.52933 -32.04368,-0.52933 -5.14237,17.62666 -1.3085,38.70498 26.39479,47.3253603 l 45.50772,3.47372 25.04506,-16.1280003 c -0.1127,-1.73508 -0.0956,-3.40463 0.05,-4.96246 0.33906,-3.6281 0.91296,-6.69675 3.56597,-9.32945 0.662,-0.65694 1.45663,-1.422 2.28288,-2.21655 l -12.51421,-10.68584 -5.11565,-20.31303 -25.96156,-37.152293 -0.89981,-2.43162 z"
	   style="fill:#ffffff;fill-opacity:1;fill-rule:evenodd;stroke:#0c8597;stroke-width:1.21354926;stroke-miterlimit:4;stroke-opacity:1;stroke-dasharray:none" /><path
	   inkscape:connector-curvature="0"
	   inkscape:export-ydpi="35.299999"
	   inkscape:export-xdpi="35.299999"
	   inkscape:export-filename="E:\Users\John\Desktop\chorus3.png"
	   style="fill:#0c8597;fill-opacity:1;fill-rule:evenodd;stroke:#0c8597;stroke-width:1.21354926;stroke-miterlimit:4;stroke-opacity:1;stroke-dasharray:none"
	   d="m -524.2836,-103.80001 c -8.79076,6.241636 -17.03582,13.072609 -23.42873,19.866393 1.4743,8.97285 2.7372,23.87975 -2.88277,33.0831 -14.73736,24.1342 -32.04368,-0.52933 -32.04368,-0.52933 -5.14237,17.62666 -1.3085,38.70498 26.39479,47.3253603 l 45.50772,3.47372 25.04506,-16.1280003 c -0.1127,-1.73508 -0.0956,-3.40463 0.05,-4.96246 0.33906,-3.6281 0.91296,-6.69675 3.56597,-9.32945 0.662,-0.65694 1.45663,-1.422 2.28288,-2.21655 l -12.51421,-10.68584 -5.11565,-20.31303 -25.96156,-37.152293 -0.89981,-2.43162 z"
	   id="path11727" /><path
	   inkscape:connector-curvature="0"
	   inkscape:export-ydpi="35.299999"
	   inkscape:export-xdpi="35.299999"
	   inkscape:export-filename="E:\Users\John\Desktop\chorus3.png"
	   id="path10228"
	   d="m -487.99075,-125.55214 c -0.75468,0.0216 -1.49144,0.23105 -2.14957,0.61204 -0.0116,0.007 -0.007,0.0121 -0.0167,0.0166 -5.79793,2.61147 -12.54585,4.71533 -19.41283,7.17903 -8.07452,4.71002 -16.38329,10.19783 -24.02861,16.11146 0.54464,2.42359 1.66582,6.179651 1.84963,7.145942 0.85845,4.512464 0.77776,8.011571 -1.38306,15.929511 -1.54282,5.65349 -4.20681,9.73526 -6.14879,14.42423 -1.94197,4.68897 -2.57207,10.60876 0.96647,16.4423 7.01841,11.57025 17.95152,21.00884 38.0092,23.1747 -1.1959,2.2161 -2.96757,4.26035 -5.73222,6.23615 -1.4993,1.07499 -2.18541,2.91918 -1.69966,4.61509 0.48575,1.69592 2.03797,2.88854 3.86591,2.96095 l 17.22994,0.62857 c 1.28767,0.0485 2.55167,-0.4751 3.44933,-1.40603 0.89763,-0.93092 1.33947,-2.18514 1.19975,-3.42411 -0.27591,-2.39347 -0.24838,-4.6394 0.0166,-6.63315 0.11046,-0.83086 0.22336,-1.55485 0.34994,-2.16693 0.26435,-1.28942 -0.0984,-2.60285 -0.98315,-3.55643 -0.1425,-0.15396 -0.21834,-0.28059 -0.34994,-0.4301 15.01539,-10.15611 24.63636,-23.02219 30.61066,-34.68761 1.09201,-2.44333 2.10586,-4.99981 3.01606,-7.70836 0.0572,0.26685 0.12386,0.50612 0.19996,0.74436 0.92698,-2.2407 1.73147,-4.39374 2.39954,-6.43465 0.004,-0.0113 0.0131,-0.0219 0.0166,-0.0331 -9.88029,-20.285418 -28.40504,-37.394073 -41.24187,-49.740423 -0.0112,2.1e-4 -0.0221,-3e-4 -0.0333,0 z"
	   style="fill:#ffffff;fill-opacity:1;fill-rule:evenodd;stroke:#0c8597;stroke-width:1.21354926;stroke-miterlimit:4;stroke-opacity:1;stroke-dasharray:none" /><path
	   inkscape:connector-curvature="0"
	   inkscape:export-ydpi="35.299999"
	   inkscape:export-xdpi="35.299999"
	   inkscape:export-filename="E:\Users\John\Desktop\chorus3.png"
	   id="path10210"
	   d="m -490.14032,-131.50709 c -0.002,0.0134 0.007,0.0343 0.0166,0.0662 0.004,0.0145 0.0445,0.0819 0.05,0.0993 -0.008,-0.16068 -0.0602,-0.20545 -0.0666,-0.16542 z m -0.96648,8.13843 c -0.0988,0.0593 -0.19708,0.11353 -0.29995,0.16542 -11.76585,5.51493 -25.97449,14.00314 -38.42577,23.472455 -0.0341,0.982325 0.0392,1.94711 0.24995,2.894771 1.14463,5.146512 1.14172,9.746792 -0.79983,18.179157 -2.97529,12.92192 -10.85028,18.39277 -4.58243,28.35221 7.68815,12.21631 18.27843,21.33769 40.92527,22.1822 -0.76977,5.24086 -3.53658,9.8151 -8.61497,13.63024 l 17.26326,0.64512 c -0.41482,-2.78137 -0.4742,-5.42459 -0.24995,-7.82414 0.0814,-0.87157 0.1661,-1.70626 0.29995,-2.51432 -1.49396,-1.58751 -2.67074,-3.08464 -3.29936,-4.46623 22.07808,-14.04498 32.21963,-34.74733 36.34285,-49.29379 -9.84213,-17.97822 -26.52909,-33.555743 -38.80902,-45.423093 z"
	   style="fill:#ffffff;fill-opacity:1;fill-rule:evenodd;stroke:#0c8597;stroke-width:1.21354926;stroke-miterlimit:4;stroke-opacity:1;stroke-dasharray:none" /><path
	   inkscape:connector-curvature="0"
	   inkscape:export-ydpi="35.299999"
	   inkscape:export-xdpi="35.299999"
	   inkscape:export-filename="E:\Users\John\Desktop\chorus3.png"
	   sodipodi:nodetypes="cssscsccsccsscssc"
	   id="path11731"
	   d="m -379.30162,-29.993107 c 0.13465,14.83803 -3.77051,25.2647403 -16.9672,33.9536803 -20.84185,13.7226197 -44.97661,12.9665497 -65.98365,5.07968 -21.00703,-7.88689 -21.04832,-32.0412303 -16.6979,-36.3598403 5.87882,-5.83583 21.7061,-19.21044 29.62531,-42.77627 1.23715,5.77232 7.10565,4.80181 8.61826,-0.80205 7.33731,-27.182976 0.50073,-69.134423 -9.69554,-72.987033 -2.31068,12.11838 19.98553,24.44411 5.65572,72.452313 -10.21331,-24.691525 -34.18198,-45.063053 -47.5924,-58.375403 -2.64615,-2.6268 -3.58891,-0.61705 -1.15469,3.56831 -20.66704,9.69053 -48.1219,27.792055 -62.21314,45.717137 -18.23937,-46.389777 29.40969,-71.917627 48.74709,-71.917627 5.83539,0 3.34172,-4.396 -4.84778,-4.81232 -4.86614,-0.24737 -23.25682,4.83124 -27.47074,6.95114 50.20241,-44.71885 107.30224,-15.17054 117.15464,26.46783 6.6246,27.99703 -0.6733,31.280155 -0.26933,63.362363 0.33974,26.98088 22.48829,41.84055 43.09135,30.47809 z"
	   style="fill:#0c8597;fill-opacity:1;fill-rule:evenodd;stroke:#0c8597;stroke-width:1.21354926;stroke-miterlimit:4;stroke-opacity:1;stroke-dasharray:none" /><path
	   inkscape:connector-curvature="0"
	   inkscape:export-ydpi="35.299999"
	   inkscape:export-xdpi="35.299999"
	   inkscape:export-filename="E:\Users\John\Desktop\chorus3.png"
	   id="path10310"
	   d="m -694.61195,-123.45228 c -2.98094,0.0369 -5.69967,0.67498 -9.36575,1.76658 -27.88412,8.30264 -59.14648,35.185577 -86.86279,63.459353 -11.45032,11.68059 -16.89256,20.85053 -23.56748,30.25467 -5.63402,7.93766 -2.71183,16.54542 3.75447,20.7186203 10.58604,6.83195 26.85821,16.83779 43.29884,21.1816997 -0.75892,1.26874 -1.32105,2.55607 -1.63239,3.80756 -1.37916,5.54405 -0.0338,10.18657 3.14233,14.09825 3.76833,4.64104 9.30205,6.16644 15.2423,6.56892 5.52818,0.37455 12.1332,-0.81539 17.07872,-4.87094 5.63191,3.62357 11.73135,8.03233 28.89305,13.2407 24.28843,7.37126 55.08804,-1.69799 64.13195,-26.37849 6.29458,-17.1776497 7.92626,-26.6135597 9.28413,-39.36195 0.42669,-4.00592 0.2925,-7.42977 -1.36711,-10.68518 -1.65959,-3.25543 -5.2166,-5.67881 -8.34552,-6.79187 -18.61333,-4.64502 -49.13503,-22.46856 -39.11579,-36.63491 1.57775,-2.51512 -10.98312,6.22531 -9.01887,3.91046 1.84973,-2.33938 3.95767,-4.507 4.91751,-8.0782 0.95986,-3.571197 0.39631,-6.863331 -0.71414,-11.662797 -0.94032,-4.064058 -1.30996,-8.662425 -1.04064,-12.091586 0.13465,-1.71459 0.43806,-3.13764 0.71416,-3.89331 0.11806,-0.32313 0.22743,-0.40523 0.24484,-0.41163 2.63092,-1.87103 5.06005,-4.52802 4.93795,-8.23258 -0.13602,-4.1266 -3.69996,-6.86914 -6.57031,-8.06104 -1.0864,-0.45113 -4.23637,-1.89937 -8.03946,-1.85233 z"
	   style="fill:#ffffff;fill-opacity:1;fill-rule:evenodd;stroke:#0c8597;stroke-width:11.33775234;stroke-miterlimit:4;stroke-opacity:1;stroke-dasharray:none"
	   sodipodi:nodetypes="csssscssscsssscccsssssssc" /><path
	   inkscape:connector-curvature="0"
	   inkscape:export-ydpi="35.299999"
	   inkscape:export-xdpi="35.299999"
	   inkscape:export-filename="E:\Users\John\Desktop\chorus3.png"
	   sodipodi:nodetypes="csssssssssssssss"
	   id="path10247"
	   d="m -699.46358,-60.288497 c 3.40435,-1.6521 5.86498,-2.85786 9.00997,1.28604 6.82059,8.98697 15.86508,20.0071 31.44987,24.4347 15.10683,4.29181 24.13125,0.72972 22.94989,14.86087 -1.08517,12.9807403 -2.36556,21.7903803 -8.32997,39.15268 -7.45837,21.71123 -33.40485,29.00728 -54.73975,22.57709 -20.50874,-6.18119 -23.40655,-10.43223 -31.95987,-15.14666 -5.18498,-2.85786 -4.10812,0.59623 -6.11996,2.57207 -5.88142,5.77617 -18.01992,3.78668 -21.41992,-0.28578 -3.39998,-4.07245 -5.09998,-15.2181 7.81998,-16.00401 7.03706,-0.42805 12.91994,0.64302 8.83995,-3.14366 -2.10644,-1.9512297 -2.03515,-2.0739397 -0.68,-4.8583497 0.765,-1.57182 2.69398,-1.74586 -0.34,-7.14465 -5.27943,-9.3944603 -11.53228,-22.5237403 -16.14992,-31.4364603 -2.29499,-4.42968 1.81337,-5.69553 4.92998,-6.28729 21.17495,-4.02057 38.79128,-12.83693 54.73975,-20.57659 z"
	   style="fill:#ffffff;fill-opacity:0;fill-rule:evenodd;stroke:#0c8597;stroke-width:1.21354926;stroke-miterlimit:4;stroke-opacity:1;stroke-dasharray:none" /><path
	   inkscape:connector-curvature="0"
	   inkscape:export-ydpi="35.299999"
	   inkscape:export-xdpi="35.299999"
	   inkscape:export-filename="E:\Users\John\Desktop\chorus3.png"
	   id="path10249"
	   d="m -744.13168,17.434923 c -2.41705,0.0491 -6.30769,1.07887 -5.9941,3.599 1.14992,2.72476 6.59343,-0.47309 7.19775,2.84096 0.27734,3.29893 6.14101,2.03405 4.69097,-1.03298 -0.18409,-2.65654 -2.18223,-5.8455 -5.89462,-5.40698 z"
	   style="fill:#0c8597;fill-opacity:1;stroke:#0c8597;stroke-width:1.21354926;stroke-miterlimit:4;stroke-opacity:1;stroke-dasharray:none" /><path
	   inkscape:connector-curvature="0"
	   inkscape:export-ydpi="35.299999"
	   inkscape:export-xdpi="35.299999"
	   inkscape:export-filename="E:\Users\John\Desktop\chorus3.png"
	   sodipodi:nodetypes="cssssssssssssss"
	   id="path10303"
	   d="m -764.73257,8.1299933 c 5.16475,1.34154 7.11982,0.88618 9.3762,-1.01042 3.407,-2.86374 4.03036,-3.36654 5.76996,-4.84995 1.15166,-0.98203 2.30243,-1.55723 0.72124,-4.24369 -4.65695,-7.9123 -13.95827,-20.3503303 -17.06948,-30.1101003 -1.812,-5.68418 0.1051,-7.74333 3.60623,-8.68949 20.74634,-5.60653 54.45926,-17.93199 66.76505,-33.95979 3.94004,-5.131798 5.10131,-5.761452 2.71496,-15.145944 -2.428,-9.548349 -2.20048,-20.687199 1.68291,-23.190299 3.72676,-2.40217 3.0653,-4.54536 0.2404,-5.70731 -2.82487,-1.16198 -3.8368,-2.10733 -11.53992,0.20208 -24.67399,7.39728 -56.86307,34.503188 -84.38579,63.251413 -10.99542,11.48501 -15.99205,20.34318 -22.83948,30.31218 -3.59653,5.23607 -0.99207,10.31995 2.16374,12.32696 10.8843,6.9220803 27.80772,16.9216503 42.79398,20.8143603 z"
	   style="fill:#0c8597;fill-opacity:1;fill-rule:evenodd;stroke:#0c8597;stroke-width:1.21354926;stroke-miterlimit:4;stroke-opacity:1;stroke-dasharray:none" /><path
	   inkscape:connector-curvature="0"
	   inkscape:export-ydpi="35.299999"
	   inkscape:export-xdpi="35.299999"
	   style="fill:#ffffff;fill-opacity:1;fill-rule:evenodd;stroke:#0c8597;stroke-width:1.21354926;stroke-miterlimit:4;stroke-opacity:1;stroke-dasharray:none"
	   d="m -366.51259,51.826913 c 4.56432,-7.11251 14.63534,61.154777 34.40795,38.70543 6.42923,-7.29959 16.95475,81.753287 19.46247,80.894377 27.63501,-9.46548 21.78459,-70.01391 22.86707,-85.372617 -1.93645,-8.78137 -6.76274,-22.18146 6.63311,-39.05257 9.92936,-12.50544 17.14901,-25.04735 17.60808,-32.55497 1.40706,-23.0118597 -9.91107,-17.2202697 -38.45672,-18.6068997 -8.56234,-0.41592 -23.32987,-0.0206 -39.66658,2.09162 -14.48736,1.87304 -33.84754,-2.9821 -66.68586,-18.6840503 -21.5878,-10.32243 31.71126,91.46479 43.83048,72.57968 z"
	   id="path9310"
	   sodipodi:nodetypes="csscssssss"
	   inkscape:export-filename="E:\Users\John\Desktop\chorus3.png" /><path
	   inkscape:connector-curvature="0"
	   inkscape:export-ydpi="35.299999"
	   inkscape:export-xdpi="35.299999"
	   inkscape:export-filename="E:\Users\John\Desktop\chorus3.png"
	   sodipodi:nodetypes="ccssss"
	   id="path9308"
	   d="m -361.25987,49.375373 c 4.73688,-7.38137 26.96037,3.86383 32.30927,27.93003 19.53939,-6.29149 51.89241,-44.57155 52.80136,-59.43633 1.186,-19.3957297 -8.35362,-14.5142597 -32.41351,-15.6829797 -13.61669,-0.66143 -45.85272,1.11151 -70.46076,10.4451397 -18.07021,6.85389 7.54885,52.66159 17.76364,36.74414 z"
	   style="fill:#ffffff;fill-opacity:1;fill-rule:evenodd;stroke:#0c8597;stroke-width:1.21354926;stroke-miterlimit:4;stroke-opacity:1;stroke-dasharray:none" /><path
	   inkscape:connector-curvature="0"
	   inkscape:export-ydpi="35.299999"
	   inkscape:export-xdpi="35.299999"
	   inkscape:export-filename="E:\Users\John\Desktop\chorus3.png"
	   style="fill:#0c8597;fill-opacity:1;fill-rule:evenodd;stroke:#0c8597;stroke-width:1.21354926;stroke-miterlimit:4;stroke-opacity:1;stroke-dasharray:none"
	   d="m -361.25987,49.375373 c 4.73688,-7.38137 26.96037,3.86383 32.30927,27.93003 19.53939,-6.29149 51.89241,-44.57155 52.80136,-59.43633 1.186,-19.3957297 -8.35362,-14.5142597 -32.41351,-15.6829797 -13.61669,-0.66143 -45.85272,1.11151 -70.46076,10.4451397 -18.07021,6.85389 7.54885,52.66159 17.76364,36.74414 z"
	   id="path11820"
	   sodipodi:nodetypes="ccssss" /><path
	   inkscape:connector-curvature="0"
	   inkscape:export-ydpi="35.299999"
	   inkscape:export-xdpi="35.299999"
	   inkscape:export-filename="E:\Users\John\Desktop\chorus3.png"
	   sodipodi:nodetypes="cssssssssssssscscsssssssc"
	   id="path9220"
	   d="m -264.3844,-122.58241 c -4.07204,-0.55533 -8.15758,-0.69797 -12.133,-0.38815 -25.87078,2.01621 -41.333,20.87485 -41.74252,41.566304 -0.20885,10.549199 6.46731,27.618019 9.21104,20.941089 2.11899,-5.15657 3.25256,-8.50063 10.0159,-14.69526 3.17606,-2.90894 7.77674,-5.885912 12.58382,-6.121613 1.59642,-0.07831 5.44291,-1.289454 1.16827,5.060183 -4.21677,6.43891 -10.34884,12.51596 -25.06587,20.30433 -14.44395,7.64383 -21.32954,7.72817 -33.42523,11.08954 -6.00636,1.66912 -7.60537,5.06228 -8.92064,9.24205 -1.31539,4.17975 -3.58848,8.55581 -3.42331,14.73623 0.34326,12.8556803 2.98576,19.7182803 12.22129,31.64873 6.06518,7.83513 16.05154,11.7091 25.78205,13.04811 9.73049,1.33903 19.64471,0.64601 28.48624,0.04 22.89965,-1.56953 32.62813,-12.01221 40.80377,-17.7025097 7.39773,3.29634 16.46692,1.89939 21.81739,-2.66868 3.5101,-2.99686 4.74202,-6.63316 4.41839,-10.16576 0.22583,0.0775 0.45029,0.15784 0.68549,0.21581 3.4254,0.8444 5.71632,-0.19408 7.60312,-1.08329 3.77356,-1.77843 6.44008,-4.8843503 12.87396,-8.7143603 14.49025,-8.62616 28.52825,-22.8011 26.65756,-40.37239 -2.03534,-19.11757 -29.5494,-28.516931 -35.62826,-30.368031 -1.15772,-0.352538 -6.4285,-1.663466 -7.80096,-2.610188 -3.75823,-2.592267 -4.64202,-4.731387 -5.62879,-7.079475 -5.66238,-13.473659 -22.91432,-23.516359 -40.55971,-25.922689 z"
	   style="fill:#0c8597;fill-opacity:1;fill-rule:evenodd;stroke:#0c8597;stroke-width:1.21354926;stroke-miterlimit:4;stroke-opacity:1;stroke-dasharray:none" /><path
	   inkscape:connector-curvature="0"
	   inkscape:export-ydpi="35.299999"
	   inkscape:export-xdpi="35.299999"
	   inkscape:export-filename="E:\Users\John\Desktop\chorus3.png"
	   sodipodi:nodetypes="csssssssssssssss"
	   id="path9212"
	   d="m -279.03861,-74.426577 c 1.39869,-2.21574 2.50465,-1.45078 3.80262,0.36757 11.95221,16.74452 12.11181,31.65163 42.2257,34.28546 1.52773,0.13363 1.7726,0.87074 0.80164,2.75836 -2.82886,5.4997 -9.398,13.2111 -12.43782,19.12095 -1.7223,3.34838 -1.47212,6.19978 1.44837,4.92813 5.7504,-2.50384 8.26176,-2.51739 10.72694,0.81445 2.46518,3.3318503 3.08407,8.9875703 -0.86619,12.5129103 -3.95026,3.52535 -10.43463,4.26108 -14.9348,1.58848 -4.34419,-2.57999 -3.0373,-1.18628 -5.64357,0.6837 -8.91523,6.3966 -16.49388,15.8126497 -37.01344,17.4127097 -17.19194,1.34059 -37.0492,2.61824 -46.68176,-10.4126397 -8.72247,-11.79968 -12.91693,-17.12226 -10.84098,-29.6947203 1.87399,-11.34933 2.31281,-16.62693 12.12185,-19.52975 11.16829,-3.30506 15.6123,-4.47533 30.43759,-12.72975 14.82528,-8.25444 22.22569,-14.7742 26.85385,-22.10586 z"
	   style="fill:#ffffff;fill-opacity:1;fill-rule:evenodd;stroke:#0c8597;stroke-width:1.21354926;stroke-miterlimit:4;stroke-opacity:1;stroke-dasharray:none" /><path
	   inkscape:connector-curvature="0"
	   inkscape:export-ydpi="35.299999"
	   inkscape:export-xdpi="35.299999"
	   inkscape:export-filename="E:\Users\John\Desktop\chorus3.png"
	   sodipodi:nodetypes="csssssssssssssss"
	   id="path9205"
	   d="m -308.28687,-75.497717 c -4.74009,8.42716 -4.73565,-2.49847 -4.725,-5.59607 0.0642,-18.661103 17.70853,-31.546213 39.07389,-33.146653 34.11719,-2.55563 42.11899,14.930785 44.72389,20.502051 6.89794,14.75308 8.64882,17.178482 13.70855,21.624872 4.37819,3.84748 8.26271,0.35968 5.25981,-3.00364 -1.94246,-2.1756 -13.36036,-9.507647 -6.1607,-7.315267 7.15309,2.178205 31.08394,7.470817 34.07635,25.736027 2.59007,15.80994 -7.74807,29.32165 -21.11994,37.28204 -13.14786,7.82702 -17.11975,12.0104303 -19.31198,6.79638 -2.23032,-5.30476 -13.80094,-2.86762 -11.47289,-10.54476 2.09734,-6.91627 9.3822,-13.26305 14.68951,-18.03698 5.24714,-4.71982 2.456,-6.90382 -6.17499,-3.92165 -7.50032,2.59148 -17.06925,4.21711 -25.51238,-3.54312 -7.29717,-6.70688 -13.05494,-9.80361 -17.40142,-29.33377 -3.00621,-13.508075 -28.94471,-16.536603 -39.6527,2.50054 z"
	   style="fill:#0c8597;fill-opacity:1;fill-rule:evenodd;stroke:#0c8597;stroke-width:1.21354926;stroke-miterlimit:4;stroke-opacity:1;stroke-dasharray:none" /><path
	   inkscape:connector-curvature="0"
	   inkscape:export-ydpi="35.299999"
	   inkscape:export-xdpi="35.299999"
	   inkscape:export-filename="E:\Users\John\Desktop\chorus3.png"
	   sodipodi:nodetypes="csssssss"
	   id="path9223"
	   d="m -246.35391,-4.1624567 c -0.59073,0.62471 -0.26498,1.80085 0.80824,2.10726 0.74596,0.21296 1.48781,0.55467 1.89772,1.14525 0.44439,0.64036 1.29519,1.34964 2.26646,1.27767 0.70749,-0.0524 0.97228,-0.79119 0.64335,-1.32324 -2.10161,-3.39941 4.48497,-2.4901 7.29498,-4.54414 0.84612,-0.61849 -0.57382,-2.00432 -1.78444,-2.03403 -4.58504,-0.4592 -8.1526,0.90384 -11.12631,3.37123 z"
	   style="fill:#0c8597;fill-opacity:1;stroke:#0c8597;stroke-width:1.21354926;stroke-miterlimit:4;stroke-opacity:1;stroke-dasharray:none" /><path
	   inkscape:connector-curvature="0"
	   inkscape:export-ydpi="35.299999"
	   inkscape:export-xdpi="35.299999"
	   inkscape:export-filename="E:\Users\John\Desktop\chorus3.png"
	   id="path9295"
	   d="m -269.32744,13.867353 c -5.37151,3.01981 -12.08528,5.44298 -21.59349,6.1844 -17.19201,1.34059 -37.05548,2.61968 -46.68799,-10.4111897 -1.29161,-1.74726 -2.41718,-3.34029 -3.42526,-4.84235 -1.75034,0.71709 -3.41787,1.47648 -4.96802,2.24457 -5.5399,2.74496 -10.12138,5.2226597 -10.98523,9.9315397 -1.48497,8.09448 -1.61803,14.41183 -1.17211,20.41271 0.11673,1.57254 0.6492,3.40468 2.18101,4.84193 1.53174,1.43725 2.98046,1.8715 3.94804,2.27771 7.18798,3.01776 17.20292,5.09 25.8729,6.22753 6.9146,0.90721 10.88058,-2.0708 11.4765,-2.3325 17.22406,-7.56546 30.28886,-13.53717 38.14738,-20.88074 4.23733,-3.95975 6.71897,-8.51415 7.20627,-13.65361 z"
	   style="fill:#ffffff;fill-opacity:1;fill-rule:evenodd;stroke:#0c8597;stroke-width:1.21354926;stroke-miterlimit:4;stroke-opacity:1;stroke-dasharray:none" /><path
	   inkscape:connector-curvature="0"
	   inkscape:export-ydpi="35.299999"
	   inkscape:export-xdpi="35.299999"
	   inkscape:export-filename="E:\Users\John\Desktop\chorus3.png"
	   id="path9291"
	   d="m -278.46271,22.253723 c -3.33905,0.77928 -7.03731,1.35261 -11.16365,1.63543 -8.84153,0.60599 -18.75575,1.29901 -28.48624,-0.04 -8.77422,-1.20742 -17.76056,-4.48084 -23.88828,-10.85629 -3.73129,1.94344 -6.30588,3.93921 -6.83083,5.75218 -2.07007,7.14891 -2.73003,12.61902 -2.84869,17.88952 -0.0477,2.11528 0.82573,2.43349 2.65165,3.21055 5.57268,2.37164 14.6834,4.34266 22.37346,5.35251 5.12238,0.67266 6.50474,-1.00184 8.44396,-1.78567 19.47983,-7.87408 33.19729,-13.86359 39.74862,-21.15821 z"
	   style="fill:#0c8597;fill-opacity:1;fill-rule:evenodd;stroke:#0c8597;stroke-width:1.21354926;stroke-miterlimit:4;stroke-opacity:1;stroke-dasharray:none" /><path
	   inkscape:connector-curvature="0"
	   inkscape:export-ydpi="35.299999"
	   inkscape:export-xdpi="35.299999"
	   inkscape:export-filename="E:\Users\John\Desktop\chorus3.png"
	   sodipodi:nodetypes="csssss"
	   id="path9312"
	   d="m -311.04284,161.86167 c 8.60864,6.39499 13.66017,-27.55774 12.28305,-44.35845 -1.49955,-18.294547 8.60091,-11.46056 5.1914,-16.84895 -13.45542,-21.264937 -0.71866,-35.899647 -7.62005,-31.795767 -15.42908,9.17488 -40.60811,24.46335 -35.00168,29.56325 20.86378,18.978847 16.53858,57.044957 25.14728,63.439917 z"
	   style="fill:#0c8597;fill-opacity:1;fill-rule:evenodd;stroke:#0c8597;stroke-width:1.21354926;stroke-miterlimit:4;stroke-opacity:1;stroke-dasharray:none" /><path
	   inkscape:connector-curvature="0"
	   inkscape:export-ydpi="35.299999"
	   inkscape:export-xdpi="35.299999"
	   inkscape:export-filename="E:\Users\John\Desktop\chorus3.png"
	   inkscape:transform-center-y="14.193178"
	   inkscape:transform-center-x="-28.711348"
	   style="fill:#0c8597;fill-opacity:1;fill-rule:evenodd;stroke:#0c8597;stroke-width:1.21354926;stroke-miterlimit:4;stroke-opacity:1;stroke-dasharray:none"
	   d="m -480.09083,20.949173 c -4.73993,7.6625 36.26697,1.32833 55.34828,-4.42948 20.77804,-6.26973 15.99388,2.52845 21.18744,-1.3266 20.49616,-15.2137097 41.46704,-10.7981997 34.5472,-14.2897097 -15.47051,-7.80573 -41.08379,-20.4533003 -45.25669,-15.1944703 -15.52915,19.5704303 -61.08629,27.57768 -65.82623,35.24026 z"
	   id="path9314"
	   sodipodi:nodetypes="csssss" /></g><g
	 transform="translate(130.88299,-59.305826)"
	 style="fill:#0c8597;fill-opacity:1"
	 id="g3891"><rect
	   style="fill:#0c8597;fill-opacity:1;stroke:none"
	   id="rect3827-5"
	   width="54.977554"
	   height="7.7781758"
	   x="-28.493752"
	   y="276.46561"
	   rx="0.63211381"
	   ry="0.33749998" /><rect
	   style="fill:#0c8597;fill-opacity:1;stroke:#ffffff;stroke-width:1.39033115;stroke-linecap:butt;stroke-linejoin:miter;stroke-miterlimit:4;stroke-opacity:1;stroke-dasharray:none"
	   id="rect3827"
	   width="24.748737"
	   height="11.976623"
	   x="-15.058716"
	   y="274.16748"
	   rx="2.5481496"
	   ry="1.6130275" /><rect
	   style="fill:#0c8597;fill-opacity:1;stroke:none"
	   id="rect3827-2"
	   width="11.844039"
	   height="11.976623"
	   x="-9.0483246"
	   y="269.32825"
	   rx="1.2194716"
	   ry="1.6130275" /></g><path
	 transform="matrix(0.82592594,0,0,0.82592594,105.94942,-20.50277)"
	 d="m 48.967146,254.75587 c 0,13.1802 -10.68466,23.86486 -23.864855,23.86486 -13.180195,0 -23.8648547,-10.68466 -23.8648547,-23.86486 0,-13.18019 10.6846597,-23.86485 23.8648547,-23.86485 13.180195,0 23.864855,10.68466 23.864855,23.86485 z"
	 sodipodi:ry="23.864855"
	 sodipodi:rx="23.864855"
	 sodipodi:cy="254.75587"
	 sodipodi:cx="25.102291"
	 id="path3887"
	 style="fill:none;stroke:#0c8597;stroke-width:6.73344183;stroke-miterlimit:4;stroke-opacity:1;stroke-dasharray:none"
	 sodipodi:type="arc" /><g
	 style="fill:#0c8597;fill-opacity:1"
	 transform="matrix(0.45708322,0,0,0.45708322,103.6458,166.89583)"
	 id="g4304">
	<path
   style="fill:#0c8597;fill-opacity:1"
   inkscape:connector-curvature="0"
   d="m 32.714,93.852 c -0.667,0 -1.16,-0.173 -1.143,-0.856 0.393,-0.219 1.133,0.234 1.143,0.856 z"
   id="path4306" />
	<path
   style="fill:#0c8597;fill-opacity:1"
   inkscape:connector-curvature="0"
   d="m 27.858,11.464 c 0.641,0.257 -0.133,0.94 -0.286,1.284 0.072,0.32 0.797,0.716 1.001,0.43 0.592,0.217 0.459,1.157 0.856,1.57 -0.176,0.537 -0.606,0.821 -0.715,1.428 -0.362,-0.018 -0.553,-0.208 -0.571,-0.569 -0.535,-0.013 -0.431,0.614 -1.142,0.427 0,-0.189 0,-0.38 0,-0.57 -0.776,-0.108 -1.157,0.176 -1.857,0.144 0.502,-1.788 1.423,-3.151 2.714,-4.144 z"
   id="path4308" />
	<path
   style="fill:#0c8597;fill-opacity:1"
   inkscape:connector-curvature="0"
   d="m 71.121,18.318 c 0.348,0.463 0.313,1.308 0.432,1.999 -0.432,0.094 -0.5,0.548 -1.145,0.429 -0.607,-0.589 -0.271,-1.443 -0.428,-2.285 0.401,-0.216 0.586,0.047 1.141,-0.143 z"
   id="path4310" />
	<path
   style="fill:#0c8597;fill-opacity:1"
   inkscape:connector-curvature="0"
   d="m 82.83,24.172 c 0.027,0.789 -0.871,0.651 -1.283,1 -0.449,-0.313 -0.929,-0.595 -0.857,-1.427 0.706,-0.369 1.582,0.183 2.14,0.427 z"
   id="path4312" />
	<path
   style="fill:#0c8597;fill-opacity:1"
   inkscape:connector-curvature="0"
   d="m 87.258,24.743 c -0.141,0.575 -0.625,0.803 -1,1.142 -1.611,-0.421 -0.594,-1.732 1,-1.142 z"
   id="path4314" />
	<path
   style="fill:#0c8597;fill-opacity:1"
   inkscape:connector-curvature="0"
   d="m 14.722,37.022 c 1.262,-0.359 2.994,-0.333 2.998,1.284 -0.945,-0.088 -1.554,0.159 -1.856,0.714 -0.486,-0.679 -1.398,-0.043 -1.713,-0.856 -0.065,-0.446 0.306,-0.456 0.714,-0.428 0.018,-0.256 -0.175,-0.302 -0.143,-0.572 -0.644,0.165 -1.065,0.554 -1.999,0.43 0.012,-1.605 -2.129,-1.953 -3.142,-1.286 0.538,-2.803 4.395,-0.535 5.141,0.714 z"
   id="path4316" />
	<path
   style="fill:#0c8597;fill-opacity:1"
   inkscape:connector-curvature="0"
   d="m 19.292,37.879 c 0.181,0.771 -0.843,0.874 -1.285,0.571 0,-0.191 0,-0.38 0,-0.571 0.23,-0.214 1.053,-0.214 1.285,0 z"
   id="path4318" />
	<path
   style="fill:#0c8597;fill-opacity:1"
   inkscape:connector-curvature="0"
   d="m 13.581,39.45 c -2.25,0.757 -0.397,-2.248 0,0 l 0,0 z"
   id="path4320" />
	<path
   style="fill:#0c8597;fill-opacity:1"
   inkscape:connector-curvature="0"
   d="m 18.006,79 c 0.759,-0.162 1.181,1.121 0.571,1.429 C 17.958,80.383 18.028,79.646 18.006,79 z"
   id="path4322" />
	<path
   style="fill:#0c8597;fill-opacity:1"
   inkscape:connector-curvature="0"
   d="m 26.146,86.139 c 0.442,0.037 0.808,0.146 1.143,0.287 0.048,0.62 -0.393,0.749 -0.856,0.855 -0.327,-0.385 -0.492,-0.506 -0.287,-1.142 z"
   id="path4324" />
	<path
   style="fill:#0c8597;fill-opacity:1"
   inkscape:connector-curvature="0"
   d="m 28.002,86.855 c 0.432,0.09 0.823,0.224 0.856,0.713 -0.434,0.043 -0.854,0.53 -1.286,0.144 0.003,-0.429 0.372,-0.485 0.43,-0.857 z"
   id="path4326" />
	<path
   style="fill:#0c8597;fill-opacity:1"
   inkscape:connector-curvature="0"
   d="m 83.621,68.047 c -0.824,-1.486 -0.283,-3.018 0.61,-4.021 -0.442,-0.761 -0.238,-2.31 0.362,-3.168 0.545,-0.769 1.928,-0.881 2.438,-1.828 0.306,-0.563 -0.135,-1.01 0.488,-1.582 1.692,1.254 -0.294,4.07 -0.729,5.725 -0.299,1.125 -0.24,1.77 -0.976,2.314 0.083,0.49 -0.119,0.697 -0.123,1.099 -0.621,0.557 -0.946,1.404 -2.07,1.461 z"
   id="path4328" />
	<path
   style="fill:#0c8597;fill-opacity:1"
   inkscape:connector-curvature="0"
   d="m 47.434,4.198 c 14.66,-0.943 26.21,5.142 33.751,12.063 7.741,7.107 13.79,17.148 14.62,31.193 0.869,14.688 -4.834,25.827 -11.94,33.628 C 77.029,88.592 66.393,95.113 52.794,95.826 38.404,96.581 26.835,91.068 19.044,83.763 11.273,76.478 4.897,66.543 4.177,52.816 3.384,37.711 9.177,26.564 16.118,18.943 21.306,13.243 28.519,8.312 37.32,5.782 40.398,4.899 44.181,4.407 47.434,4.198 z M 26.355,82.182 c -1.671,-0.605 -2.034,-2.517 -2.561,-4.266 -0.132,-0.395 -0.81,-0.247 -0.608,-0.975 0.02,-0.18 0.293,-0.112 0.487,-0.121 0.206,-1.778 -1.021,-2.856 -1.096,-4.51 -0.056,-1.207 0.389,-2.421 0.241,-3.656 C 22.551,66.4 22.221,64.175 22.21,61.588 21.685,60.897 21.277,60.087 20.261,59.883 19.228,58.681 18.528,57.149 18.066,55.374 17.259,55 16.272,53.423 17.213,52.449 c -1.1,-1.178 0.399,-2.787 0.853,-3.898 0.043,-1.178 0.006,-2.278 -0.609,-2.803 C 17,45.696 17.2,46.303 16.971,46.481 16.21,46.46 16.272,45.866 15.63,45.991 15.6,45.375 15.038,45.286 14.778,44.897 14.704,42.981 12.329,43.363 11.975,41.729 11.519,41.717 11.607,42.252 10.999,42.093 9.726,41.136 8.588,40.983 8.443,39.533 8.398,39.101 8.687,38.786 8.563,38.315 8.336,37.45 7.596,36.709 7.344,35.877 7.335,36.747 8.402,38.19 7.588,38.68 7.08,38.336 7.253,37.309 6.859,36.853 4.856,41.51 4.292,48.591 4.907,54.886 c 1.431,14.634 10.451,26.846 20.957,33.51 2.431,1.539 4.656,3.197 6.825,2.189 -0.068,-0.264 -0.357,-0.934 -0.61,-0.607 0.097,0.016 0.371,0.404 0.121,0.365 -0.735,0.135 -1.858,0.194 -2.314,-0.486 0.254,-0.44 0.254,-0.656 0,-1.098 -0.526,0.398 -1.527,0.156 -1.585,-0.609 0.5,-0.121 0.494,0.016 1.099,0 0.253,-0.191 -0.075,-0.965 0.486,-0.853 0.514,0.021 0.571,0.631 0.244,0.853 0.707,0.105 0.793,0.834 1.34,1.1 -0.063,-0.715 -0.453,-0.682 -0.487,-1.223 -0.109,-1.641 2.439,-2.125 2.925,-0.973 -0.723,0.172 -1.505,0.283 -1.463,1.219 1.828,1.262 3.188,2.986 5.116,4.143 0.104,0.51 -0.235,0.572 -0.241,0.977 2.866,0.859 8.75,2.646 11.819,1.219 0.658,-0.067 1.253,0.092 1.828,0 1.275,-0.203 3.069,-1.686 4.143,-1.828 0.35,-0.047 0.859,0.199 1.22,0.121 0.552,-0.121 0.927,-0.696 1.462,-0.976 1.479,-0.769 3.295,-0.976 5.239,-1.219 0.048,0.604 1.241,0.062 1.218,0.729 0.691,-0.382 0.938,0.031 1.706,0.123 0.729,-0.943 2.068,-0.875 3.655,-0.73 14.021,-6.954 24.995,-20.146 25.711,-39.965 0.188,-5.207 -0.656,-9.759 -1.828,-14.133 -0.982,0.047 -1.461,-0.409 -2.314,-0.489 0,0.889 1.026,1.172 1.096,1.949 0.063,0.713 -0.502,0.805 -0.486,1.706 -1.121,1.072 -2.716,1.67 -4.021,2.56 -0.018,0.392 0.119,0.934 -0.363,0.854 -0.688,-0.167 -0.628,-1.076 -1.096,-1.461 -0.112,-2.246 -1.844,-2.87 -1.951,-5.117 -0.202,-0.409 -0.73,-0.488 -0.854,-0.978 -0.217,-0.775 -0.463,-2.108 -1.219,-1.948 0.125,1.338 1.02,2.96 1.829,4.021 -0.351,2.052 1.69,3.718 2.681,5.238 -0.142,0.298 -0.688,0.589 -0.367,0.975 0.881,-0.181 2.016,-0.284 2.925,-0.73 0.192,2.309 -1.32,3.955 -1.706,6.093 -0.268,0.138 -0.404,0.406 -0.73,0.485 -0.203,2.078 -2.729,2.583 -2.437,4.508 0.073,0.498 0.778,0.776 0.974,1.342 0.409,1.183 -0.195,2.125 -0.244,3.654 -0.955,0.75 -2,1.41 -2.557,2.56 0.484,0.657 0.438,2.024 0,2.679 -0.203,0 -0.408,0 -0.609,0 -0.793,1.362 -0.886,3.42 -2.436,4.021 -0.389,1.522 -1.753,2.066 -2.928,2.805 -1.17,-0.467 -3.168,1.535 -3.654,-0.367 -0.168,-0.493 0.264,-0.385 0.245,-0.73 -1.116,-1.687 -1.8,-3.34 -2.073,-5.605 -0.139,-1.152 -1.111,-1.963 -1.218,-3.043 -0.211,-2.152 2.416,-4.579 0.123,-6.215 -0.3,-1.733 -1.491,-2.572 -1.952,-4.146 0.396,-0.732 0.577,-2.449 0.123,-3.286 -1.26,0.922 -1.987,-0.913 -3.046,-1.099 -1.263,-0.219 -2.394,0.887 -3.654,1.219 -0.823,-0.056 -1.053,-0.647 -1.829,-0.609 -0.813,0.042 -1.279,0.835 -2.193,0.73 -2.092,-0.239 -3.051,-2.701 -3.896,-4.631 -0.594,-0.339 -1.236,-0.632 -1.585,-1.217 0.144,-0.754 -0.183,-1.039 -0.366,-1.461 0.678,-1.071 1.169,-3.458 0.123,-4.511 1.254,-1.749 1.833,-4.173 4.02,-4.994 1.139,-1.057 0.89,-3.5 2.683,-3.899 0,-0.688 0.368,-1.012 0.731,-1.341 -0.401,-0.533 -1.459,-0.411 -2.193,-0.608 -0.277,-1.434 0.604,-2.904 -0.122,-4.387 1.004,-1.069 2.913,0.15 4.631,-0.122 0.716,-1.962 -0.866,-2.606 -1.95,-3.169 0,-0.323 -0.048,-0.694 0.121,-0.853 1.442,0.246 1.482,-0.861 2.682,-0.243 0.039,-0.406 -0.599,-0.132 -0.365,-0.73 -0.749,0.228 -2.186,0.412 -3.047,0.121 0.156,-0.414 0.677,-0.462 0.73,-0.975 -0.439,0.073 -0.688,-0.043 -0.73,-0.365 0.145,-0.141 0.431,-0.138 0.73,-0.123 0.085,-0.45 -0.207,-0.521 -0.121,-0.974 0.143,-0.141 0.43,-0.139 0.729,-0.122 0.12,-0.487 -0.361,-0.367 -0.242,-0.854 -0.446,-0.038 -0.679,0.138 -0.976,0.245 0,0.367 0,0.731 0,1.098 -0.334,0.52 -0.871,0.835 -1.584,0.975 -0.235,-0.373 -0.795,-0.424 -1.099,-0.731 0.038,-0.605 -0.018,-1.117 -0.12,-1.585 0.963,0.135 1.163,-0.534 1.948,-0.852 0.029,0.159 0.688,0.483 0.61,0 0.115,-0.441 -0.549,-0.103 -0.487,-0.486 0.479,-0.456 0.386,-1.482 0.974,-1.829 0.383,0.025 0.896,-0.083 1.098,0.123 0.052,0.293 -0.223,0.265 -0.122,0.608 0.465,-0.058 0.76,0.052 0.854,0.366 0.03,0.478 -0.439,0.453 -0.365,0.975 0.637,-0.012 0.58,0.397 0.486,0.854 0.6,0.255 1.08,0.626 1.098,1.462 0.224,0.185 0.685,0.13 0.854,0.365 0.423,0.382 -0.374,0.644 0,0.976 0.986,0.093 1.053,-0.734 1.463,-1.219 0.651,-0.232 1.54,-0.2 2.07,-0.244 -0.555,-1.08 -0.773,-2.836 0.854,-2.925 0.364,0.913 0.319,1.318 0,2.192 0.317,0.448 1.237,0.402 0.854,1.219 1.244,1.119 2.553,-0.046 4.021,0.487 0.391,-0.665 0.168,-1.943 0.975,-2.192 0.604,-0.078 0.402,0.652 0.975,0.609 -0.007,-0.849 -0.92,-1.013 -0.486,-1.95 -1.222,-0.403 -1.971,-1.277 -3.168,-1.706 0.024,0.583 0.756,0.462 0.609,1.219 -0.878,0.341 -0.832,1.604 -0.977,2.681 -0.525,0.278 -2.196,0.259 -2.438,-0.487 -0.177,-0.747 0.755,-0.383 0.73,-0.976 -0.483,-0.571 -1.017,-1.097 -1.217,-1.95 -0.912,0.208 -1.117,0.873 -1.951,0.732 C 64.324,10.687 63.874,7.931 64.746,7.007 58.246,4.661 48.427,3.854 40.619,5.545 40.261,5.999 40.188,6.739 39.645,7.007 40.023,8.161 38.746,8.996 37.816,9.568 37.515,9.462 37.456,9.116 37.207,8.958 36.807,8.962 36.601,9.164 36.111,9.08 35.752,8.695 35.761,8.485 35.987,7.984 35.457,7.946 35.409,7.424 35.014,7.253 c -3.12,0.904 -5.674,2.368 -8.286,3.776 -0.254,0.478 -0.522,0.94 -0.731,1.463 0.162,0.123 0.454,0.115 0.489,0.363 1.049,-0.167 0.849,-1.586 1.948,-1.704 0.386,1.076 0.696,2.229 0.977,3.412 0.303,0.103 0.651,0.159 1.095,0.121 -0.104,0.794 0.789,0.593 0.853,1.219 -0.289,0.969 -0.857,1.66 -1.948,1.827 -0.104,1.074 -1.438,0.92 -2.193,1.341 0.203,0.281 1.09,-0.116 0.971,0.487 -0.688,0.493 -1.721,-0.105 -1.824,0.976 0.288,0.237 1.129,-0.075 1.216,0.365 0.033,0.396 -0.472,0.258 -0.486,0.609 0.393,0.054 0.706,0.186 0.607,0.731 -0.738,0.599 -1.777,0.901 -2.559,1.461 -0.346,-0.259 -0.074,-0.777 -0.241,-0.976 -0.545,0.595 -1.605,0.673 -1.952,1.463 -0.156,0.483 0.401,0.249 0.245,0.73 -0.83,0.227 -1.048,1.064 -1.828,1.34 -0.397,0.781 -0.615,1.743 -1.341,2.194 0.038,0.286 0.193,0.458 0.121,0.853 -0.378,1.27 -1.648,1.273 -2.313,2.315 -0.914,1.428 0.646,3.534 -0.731,4.751 -0.403,-0.733 -0.611,-1.662 -0.731,-2.68 -0.795,0.203 -0.896,-0.192 -1.828,0 0.034,0.48 -0.047,0.846 -0.366,0.976 -0.5,-0.028 -0.518,-0.539 -1.097,-0.489 -2.126,0.69 -2.093,4.026 -1.341,6.095 1.882,0.397 1.235,-2.963 3.168,-1.705 -0.186,1.07 -0.619,1.896 -0.851,2.922 3.127,-0.972 1.019,2.712 2.315,3.776 0.763,-0.542 1.745,-0.223 2.194,0 0.286,-1.172 1.305,-1.616 2.314,-2.069 0.228,0.534 0.168,0.134 0.731,0.122 0.166,0.482 0.641,0.657 0.853,1.097 0.662,-0.037 0.885,-0.179 1.34,0.123 0.261,-0.43 0.799,-0.58 1.584,-0.488 0.149,1.228 1.893,1.705 2.436,2.924 2.823,-0.224 3.726,1.474 4.145,3.655 1.111,0.573 2.609,0.397 3.167,1.707 2.227,-0.259 5.552,1.295 6.093,2.803 0.493,1.372 -1.85,3.787 -2.314,4.142 0.229,1.951 -0.222,5.403 -1.344,5.852 -0.424,0.169 -0.912,-0.066 -1.46,0 -0.62,0.598 -1.605,0.831 -2.072,1.584 -0.097,0.622 0.169,0.885 0.123,1.461 -1.022,1.253 -1.491,3.059 -2.924,3.898 -0.18,-0.188 -0.626,-0.106 -0.975,-0.121 0.87,1.328 -0.146,2.689 -1.952,2.07 0.003,0.402 0.192,0.795 0,1.221 -0.443,0.037 -0.792,-0.021 -1.094,-0.123 -0.118,0.685 0.902,0.23 0.853,0.854 -0.015,0.313 -0.455,0.195 -0.611,0.364 0.014,0.353 -0.064,0.799 0.122,0.976 -0.185,0.221 -0.834,-0.021 -0.731,0.488 0.278,0.371 0.908,0.391 0.975,0.975 -0.312,0.58 -0.625,1.162 -0.975,1.707 0.607,1.262 1.606,2.129 2.681,2.92 -1.005,0.35 -2.632,-0.076 -3.167,-0.851 0.403,0.058 0.485,-1.294 0.364,-0.976 -0.282,0.041 0.008,0.658 -0.373,0.602 z M 19.409,16.749 c 0.177,0.066 0.628,-0.143 0.608,0.123 -0.156,0.721 -0.428,1.546 0,2.193 0.969,-0.054 0.911,-1.413 0.608,-2.071 0.696,-0.729 1.7,-1.143 1.706,-2.56 -1.098,0.171 -2.2,1.367 -2.922,2.315 z m 43.376,-0.244 c 0.295,0.092 0.497,-0.789 0.122,-0.608 0.099,0.342 -0.172,0.315 -0.122,0.608 z m -37.042,2.559 c 0.001,0.183 -0.451,0.499 -0.122,0.609 0.333,-0.316 1.152,-0.147 1.218,-0.73 -0.499,-0.097 -0.624,0.187 -1.096,0.121 z m 60.804,5.728 c -0.605,1.696 0.106,3.123 1.947,3.045 -0.021,-1.074 -0.502,-1.69 -0.974,-2.314 -0.187,-2.372 -1.793,-3.322 -2.927,-4.751 0.071,1.473 0.995,3.041 1.954,4.02 z m -8.652,-1.951 c 0.306,0.224 0.502,0.555 0.73,0.854 2.648,-0.732 3.897,0.914 6.092,0.853 -0.316,-1.43 -2.094,-1.398 -2.559,-2.682 0.178,-0.065 0.629,0.144 0.609,-0.121 -0.215,-0.03 -0.278,-0.209 -0.244,-0.487 -0.245,0.203 -0.904,-0.011 -1.096,0.244 0.228,0.137 0.586,0.145 0.486,0.609 -0.506,-0.104 -1.06,-0.392 -1.584,-0.123 -0.156,-0.317 -0.267,-0.367 -0.123,-0.73 -0.662,0.136 -0.641,-0.415 -1.218,-0.366 -0.439,0.574 -0.695,1.332 -1.093,1.949 z M 26.963,21.379 c -0.229,-0.097 -0.446,-0.203 -0.73,-0.243 -0.158,0.409 0.616,0.504 0.73,0.243 z m 40.696,-0.243 c -0.873,0.473 -1.757,0.781 -2.923,0.366 -0.284,1.505 -2.095,1.481 -1.829,3.534 -0.836,0.849 -1.95,1.254 -3.534,1.34 1.266,1.091 2.586,0.052 3.9,-0.244 1.406,-0.314 2.747,-0.178 4.266,0 0.305,-0.102 0.478,-0.334 0.853,-0.366 0.268,0.221 0.62,0.354 0.976,0.487 -0.322,0.654 0.537,0.835 0.242,1.827 1.859,0.74 2.956,2.245 4.874,2.925 0.069,-0.557 -0.215,-0.759 -0.122,-1.34 0.322,-0.41 1.348,-0.114 1.706,-0.487 1.265,1.562 3.595,1.757 5.972,1.95 0.215,-1.219 0.113,-2.138 0.243,-3.291 -0.567,-0.038 -0.813,0.243 -1.341,0.243 -0.331,-0.074 -0.303,-0.508 -0.73,-0.486 -1.398,0.427 -2.229,-0.667 -2.803,-1.462 0.02,-0.581 0.092,-2.068 -0.854,-2.07 -0.012,1.249 0.177,1.587 0.486,2.559 -0.433,-0.19 -0.072,0.415 -0.365,0.365 -0.162,0.019 -0.365,-0.496 -0.487,-0.121 0.198,-0.087 0.198,0.574 0,0.487 -1.644,-0.67 -2.384,-2.244 -2.681,-4.265 -0.51,-0.271 -0.722,-0.589 -1.461,-0.366 0.179,0.878 1.377,0.736 1.34,1.828 -0.379,0.344 -0.566,-0.242 -0.975,-0.244 -0.021,0.387 0.324,0.406 0.243,0.854 -0.39,0.058 -0.653,0.241 -0.731,0.609 -0.233,0.235 -0.489,-0.13 -0.852,-0.122 0.073,0.292 0.176,0.556 0.12,0.975 -0.285,-0.002 -0.358,0.209 -0.731,0.123 -0.404,-0.472 -1.201,-1.122 -0.973,-1.829 0.643,0.43 1.2,0.232 1.826,0.123 -0.446,-2.075 -2.663,-2.377 -3.655,-3.902 z m -51.297,1.462 c 0.491,-0.023 0.499,-0.016 0.365,0.365 0.385,0.061 0.43,-0.219 0.853,-0.122 0.027,-0.514 -0.229,-0.746 -0.609,-0.854 -0.101,0.308 -0.428,0.386 -0.609,0.611 z m -0.364,0.487 c 0.017,-0.145 0.216,-0.274 0,-0.366 -0.019,0.145 -0.219,0.278 0,0.366 z m 2.314,1.218 c 0.083,-0.354 0.202,-1.077 0.732,-0.608 0.026,-0.23 -0.138,-0.271 -0.123,-0.486 -0.539,-0.059 -0.605,0.167 -0.975,0 0.068,0.417 0.24,0.732 0.366,1.094 z m 69.819,1.219 c -0.052,-0.231 -0.043,-0.524 -0.367,-0.486 -0.035,0.318 0.045,0.524 0.367,0.486 z m 0,9.626 c 0.285,-0.038 0.502,-0.239 0.73,0 0.018,0.592 0.088,1.129 0.364,1.463 1.042,0.063 1.198,-0.752 1.584,-1.342 -0.47,0.02 -0.562,0.411 -1.095,0.364 -1.285,-0.38 -1.006,-2.323 -2.315,-2.679 0.033,0.942 0.536,1.414 0.732,2.194 z m -67.382,9.137 c 0.391,0.05 0.695,-0.517 0.246,-0.609 -0.056,0.235 -0.265,0.309 -0.246,0.609 z"
   id="path4330" />
	<g
   style="fill:#0c8597;fill-opacity:1"
   id="g4332">
		<path
   style="fill:#0c8597;fill-opacity:1"
   inkscape:connector-curvature="0"
   d="m 50,4.571 c 25.088,0 45.43,20.338 45.43,45.428 0,25.089 -20.342,45.43 -45.43,45.43 C 24.912,95.429 4.57,75.088 4.57,49.999 4.57,24.909 24.91,4.571 50,4.571 m 0,-2 c -26.153,0 -47.43,21.276 -47.43,47.428 0,26.151 21.276,47.43 47.429,47.43 26.153,0 47.43,-21.276 47.43,-47.43 C 97.428,23.847 76.151,2.571 50,2.571 l 0,0 z"
   id="path4334" />
	</g>
</g></g><text
   xml:space="preserve"
   style="font-size:40px;font-style:normal;font-weight:normal;line-height:125%;letter-spacing:0px;word-spacing:0px;fill:#000000;fill-opacity:1;stroke:none;font-family:Sans"
   x="255"
   y="150.5"
   id="text4373"
   sodipodi:linespacing="125%"><tspan
	 sodipodi:role="line"
	 id="tspan4375"
	 x="255"
	 y="150.5"
	 style="font-size:9px">Earth icon designed by Francesco Paleari from The Noun Project</tspan></text>

<text
   sodipodi:linespacing="125%"
   id="text4377"
   y="15.42424"
   x="248.74211"
   style="font-size:40px;font-style:normal;font-weight:normal;line-height:125%;letter-spacing:0px;word-spacing:0px;fill:#000000;fill-opacity:1;stroke:none;font-family:Sans"
   xml:space="preserve"><tspan
	 style="font-size:9px"
	 y="15.42424"
	 x="248.74211"
	 id="tspan4379"
	 sodipodi:role="line">USB icon designed by Dara Ullrich from The Noun Project</tspan></text>

<text
   sodipodi:linespacing="125%"
   id="text4377-6"
   y="-30.170898"
   x="195.0481"
   style="font-size:40px;font-style:normal;font-weight:normal;line-height:125%;letter-spacing:0px;word-spacing:0px;fill:#000000;fill-opacity:1;stroke:none;font-family:Sans"
   xml:space="preserve"><tspan
	 style="font-size:9px"
	 y="-30.170898"
	 x="195.0481"
	 id="tspan4379-0"
	 sodipodi:role="line">If you use these, you must add these credits somewhere:</tspan></text>

<text
   xml:space="preserve"
   style="font-size:40px;font-style:normal;font-weight:normal;line-height:125%;letter-spacing:0px;word-spacing:0px;fill:#000000;fill-opacity:1;stroke:none;font-family:Sans"
   x="28.5"
   y="208.5"
   id="text4450"
   sodipodi:linespacing="125%"><tspan
	 sodipodi:role="line"
	 id="tspan4452"
	 x="28.5"
	 y="208.5" /></text>

<g
   id="g3126"
   transform="matrix(1.4185707,0,0,1.4185707,0.58654,304.23951)"><g
	 inkscape:export-ydpi="86.110001"
	 inkscape:export-xdpi="86.110001"
	 inkscape:export-filename="C:\dev\Bloom\artwork\cloneFromChorusHub.png"
	 transform="matrix(0.60837845,0,0,0.60837845,72.48501,-184.46831)"
	 id="g4402-6-8-7-5-5-2"><g
	   id="g3891-9-9-6-8-9-0"
	   style="fill:#d65649;fill-opacity:1"
	   transform="translate(130.88299,-59.305826)"><rect
		 ry="0.33749998"
		 rx="0.63211381"
		 y="276.46561"
		 x="-28.493752"
		 height="7.7781758"
		 width="54.977554"
		 id="rect3827-5-0-6-3-2-5-1"
		 style="fill:#d65649;fill-opacity:1;stroke:none" /><rect
		 ry="1.6130275"
		 rx="2.5481496"
		 y="274.16748"
		 x="-13.379343"
		 height="11.976623"
		 width="24.748737"
		 id="rect3827-51-5-8-6-7-7"
		 style="fill:#d65649;fill-opacity:1;stroke:#ffffff;stroke-width:1.15871131;stroke-linecap:butt;stroke-linejoin:miter;stroke-miterlimit:4;stroke-opacity:1;stroke-dasharray:none" /><rect
		 ry="1.6130275"
		 rx="1.2194716"
		 y="269.32825"
		 x="-6.9269938"
		 height="11.976623"
		 width="11.844039"
		 id="rect3827-2-8-9-4-2-6-9"
		 style="fill:#d65649;fill-opacity:1;stroke:none" /></g></g><path
	 inkscape:export-ydpi="86.110001"
	 inkscape:export-xdpi="86.110001"
	 inkscape:export-filename="C:\dev\Bloom\artwork\cloneFromChorusHub.png"
	 sodipodi:type="arc"
	 style="fill:#d65649;fill-opacity:1;stroke:#ffffff;stroke-width:0.35246745;stroke-linecap:butt;stroke-linejoin:miter;stroke-miterlimit:4;stroke-opacity:1;stroke-dasharray:none"
	 id="path7449-1-2-5"
	 sodipodi:cx="249.5"
	 sodipodi:cy="-1036.2628"
	 sodipodi:rx="11.5"
	 sodipodi:ry="11.5"
	 d="m 261,-1036.2628 c 0,6.3513 -5.14873,11.5 -11.5,11.5 -6.35127,0 -11.5,-5.1487 -11.5,-11.5 0,-6.3513 5.14873,-11.5 11.5,-11.5 6.35127,0 11.5,5.1487 11.5,11.5 z"
	 transform="translate(-98.29128,969.9776)" /><path
	 inkscape:export-ydpi="86.110001"
	 inkscape:export-xdpi="86.110001"
	 inkscape:export-filename="C:\dev\Bloom\artwork\cloneFromChorusHub.png"
	 sodipodi:type="arc"
	 style="fill:#d65649;fill-opacity:1;stroke:#d65649;stroke-width:0.35246745;stroke-linecap:butt;stroke-linejoin:miter;stroke-miterlimit:4;stroke-opacity:1;stroke-dasharray:none"
	 id="path7451-9-0-2"
	 sodipodi:cx="249.5625"
	 sodipodi:cy="-1033.0753"
	 sodipodi:rx="3.8125"
	 sodipodi:ry="0.1875"
	 d="m 253.375,-1033.0753 c 0,0.1035 -1.70691,0.1875 -3.8125,0.1875 -2.10559,0 -3.8125,-0.084 -3.8125,-0.1875 0,-0.1036 1.70691,-0.1875 3.8125,-0.1875 2.10559,0 3.8125,0.084 3.8125,0.1875 z"
	 transform="translate(-95.91628,969.2276)" /><path
	 inkscape:export-ydpi="86.110001"
	 inkscape:export-xdpi="86.110001"
	 inkscape:export-filename="C:\dev\Bloom\artwork\cloneFromChorusHub.png"
	 sodipodi:nodetypes="ccccc"
	 style="fill:#d65649;fill-opacity:1;stroke:none"
	 d="m 150.02663,-58.800885 6.0362,-8.5667 c 0,0 -1.6052,-1.0885 -1.72008,-1.3534 l -6.04861,8.5843 z"
	 id="path3846-6-1-7-6-0-4-4"
	 inkscape:connector-curvature="0" /><path
	 inkscape:export-ydpi="86.110001"
	 inkscape:export-xdpi="86.110001"
	 inkscape:export-filename="C:\dev\Bloom\artwork\cloneFromChorusHub.png"
	 style="fill:#ffffff;fill-opacity:1;stroke:none"
	 d="m 152.15286,-75.441585 -6.85857,9.3053 -2.9631,-2.2243 1.03807,7.0316 7.043,-0.9625 -3.16354,-2.3747 6.87265,-9.3243 -1.96851,-1.4511 z"
	 id="path3846-6-1-7-0-2-7"
	 inkscape:connector-curvature="0" /><path
	 inkscape:export-ydpi="86.110001"
	 inkscape:export-xdpi="86.110001"
	 inkscape:export-filename="C:\dev\Bloom\artwork\cloneFromChorusHub.png"
	 sodipodi:nodetypes="cccccccc"
	 style="fill:#ffffff;fill-opacity:1;stroke:none"
	 d="m 151.13604,-57.438385 c 0,0 5.86697,-7.3002 6.92571,-8.6591 l 2.9631,2.2243 -1.03808,-7.0316 -7.04298,0.9626 3.16354,2.3746 -6.86194,8.7926 z"
	 id="path3846-6-1-7-6-4-2"
	 inkscape:connector-curvature="0" /></g><path
   inkscape:connector-curvature="0"
   d="m 142.00001,59.1342 c -10.42184,0 -18.86578,8.444 -18.86578,18.8658 0,10.4218 8.44394,18.8658 18.86578,18.8658 10.42183,0 18.86576,-8.444 18.86576,-18.8658 0,-10.4218 -8.44393,-18.8658 -18.86576,-18.8658 z m 15.51105,21.3089 c -0.5056,-0.04 -1.00253,-0.088 -1.48209,-0.1494 -0.24375,-1.004 -0.97649,-1.8209 -1.93299,-2.1892 -0.15168,-1.7454 -0.46786,-3.3502 -0.86896,-4.7809 0.65087,-0.5713 1.06554,-1.3972 1.06554,-2.3292 0,-0.069 -0.0155,-0.1321 -0.02,-0.1996 0.66635,-0.1841 1.19308,-0.2736 1.52738,-0.3147 1.22363,2.2356 1.92053,4.798 1.92053,7.5199 9e-4,0.8324 -0.0834,1.644 -0.20941,2.4431 z m -8.0636,10.277 -0.0641,0.1381 c -1.75641,-0.2781 -3.30377,-0.783 -4.66437,-1.4463 0.14149,-0.4052 0.23355,-0.8335 0.23355,-1.2881 0,-1.4969 -0.85084,-2.7869 -2.08956,-3.4502 0.35429,-1.5534 0.79801,-2.9321 1.30512,-4.1652 0.20716,0.032 0.41505,0.063 0.63088,0.063 0.81991,0 1.58019,-0.2521 2.20918,-0.6803 0.87235,0.4837 1.81941,0.9225 2.84458,1.3081 0.0664,1.152 0.73992,2.1357 1.71641,2.6303 -0.33167,2.1707 -0.99385,4.4814 -2.12164,6.8902 z m -13.90936,1.5964 -0.18866,-0.2275 c -1.58435,-1.8915 -2.99853,-7.2879 -2.09259,-13.1989 0.4324,1.324 0.96404,2.6344 1.62133,3.9014 0.64181,1.2373 1.47077,2.5579 2.51329,3.8366 -0.19205,0.4607 -0.29921,0.9659 -0.29921,1.4953 0,1.647 1.01196,3.0536 2.44425,3.6396 -0.0215,0.5682 -0.037,1.144 -0.0396,1.7379 -1.38852,-0.2215 -2.71667,-0.6218 -3.95879,-1.1844 z m 1.19421,-29.1107 c 0.0645,0.6834 0.18261,1.5844 0.39768,2.6224 -1.10252,1.067 -2.02958,2.1971 -2.79251,3.3517 0.1,-2.1771 0.51429,-4.0822 1.17609,-5.4843 0.39694,-0.1811 0.80369,-0.3407 1.21874,-0.4898 z m 7.95758,0.5573 c 0.87499,0.4592 2.6148,2.2062 4.17914,5.0606 -0.53276,0.5679 -0.86442,1.3282 -0.86442,2.1707 0,0.1256 0.023,0.2441 0.037,0.3652 -0.61238,0.4743 -1.22477,1.006 -1.82848,1.6214 -0.43919,-0.1687 -0.91348,-0.2717 -1.41418,-0.2717 -0.72331,0 -1.39266,0.209 -1.97411,0.5497 -1.63869,-2.1695 -2.57329,-4.4908 -3.10569,-6.4743 1.36249,-1.1531 2.99929,-2.1877 4.97076,-3.0216 z m 3.77957,14.2475 c 0.15998,-0.4283 0.25959,-0.886 0.25959,-1.3693 0,-0.8029 -0.24299,-1.5478 -0.65389,-2.1696 0.37807,-0.3792 0.7603,-0.7218 1.14214,-1.0315 0.49579,0.3852 1.10553,0.6248 1.77639,0.6587 0.33356,1.2207 0.59881,2.5748 0.7369,4.0441 -0.43617,0.1875 -0.81009,0.4777 -1.1176,0.829 -0.76294,-0.2902 -1.47531,-0.6113 -2.14353,-0.9614 z m -7.99079,6.2408 c -0.52372,0.072 -1.00857,0.2456 -1.44474,0.5041 -0.80934,-1.0365 -1.46286,-2.096 -1.98016,-3.0921 -0.64973,-1.2512 -1.17307,-2.5564 -1.58132,-3.8736 1.06705,-0.7014 1.77639,-1.9069 1.77639,-3.2807 0,-1.2267 -0.57728,-2.3092 -1.46021,-3.0306 0.56824,-0.9825 1.26062,-1.956 2.08468,-2.891 0.67577,2.039 1.73376,4.2867 3.3747,6.3913 -0.23658,0.5068 -0.3792,1.0656 -0.3792,1.6629 0,1.0825 0.43769,2.0635 1.14705,2.7744 -0.60674,1.424 -1.12706,3.0332 -1.53719,4.8353 z m 13.86521,-15.9559 c -0.33883,0.083 -0.7184,0.1886 -1.13157,0.321 -0.55088,-0.4852 -1.26514,-0.7908 -2.06165,-0.7908 -0.0461,0 -0.0906,0.013 -0.13621,0.014 -0.97045,-1.7979 -2.04995,-3.2857 -3.08192,-4.3893 2.53783,1.0372 4.73758,2.7216 6.41135,4.8451 z m -12.23181,-6.0107 c -1.0746,0.5528 -2.04958,1.1622 -2.93364,1.8149 -0.0834,-0.6248 -0.12601,-1.1455 -0.14601,-1.5308 0.96253,-0.1845 1.95298,-0.2905 2.96759,-0.2905 0.0385,0 0.0736,0 0.11206,0.01 z M 126.27841,78 c 0,-5.0221 2.3767,-9.4914 6.05515,-12.3714 -0.33468,1.5643 -0.49579,3.3392 -0.4524,5.2292 -1.45682,0.5758 -2.4933,1.9915 -2.4933,3.6509 0,1.2972 0.63578,2.4367 1.60434,3.1521 -0.81085,4.3803 -0.44711,8.782 0.54485,12.0398 C 128.31892,86.819 126.27841,82.6485 126.27841,78 z m 15.65858,15.7186 v -0.082 c 0.002,-0.5867 0.017,-1.1505 0.0374,-1.7074 0.43731,-0.109 0.84708,-0.2826 1.21308,-0.5233 1.15459,0.6018 2.43481,1.1036 3.84711,1.4738 -1.58247,0.5373 -3.27171,0.841 -5.03414,0.841 -0.0219,4e-4 -0.0415,0 -0.0634,0 z m 10.47541,-3.972 c 0.75992,-1.9881 1.24703,-3.9083 1.51379,-5.736 0.73388,-0.2396 1.34853,-0.7338 1.73943,-1.3862 0.4256,0.055 0.87084,0.094 1.31569,0.1336 -0.87046,2.7317 -2.4733,5.1296 -4.56891,6.9886 z"
   id="path3-1-4-0-6"
   style="fill:#d65649;fill-opacity:1"
   inkscape:export-filename="C:\dev\Bloom\artwork\cloneFromInternet.png"
   inkscape:export-xdpi="76.330002"
   inkscape:export-ydpi="76.330002" /><g
   id="g3034-4-1-1"
   transform="matrix(0.56021797,0,0,0.56021797,113.76528,-6.691179)"
   style="fill:#d65649;fill-opacity:1"
   inkscape:export-filename="C:\dev\Bloom\artwork\cloneFromUsb.png"
   inkscape:export-xdpi="81.75"
   inkscape:export-ydpi="81.75"><path
	 style="fill:#d65649;fill-opacity:1"
	 id="path3-3-5-7"
	 d="M 72.867,21.189 68.81,17.132 c -2.04,-2.04 -4.752,-3.163 -7.637,-3.163 -2.886,0 -5.598,1.123 -7.638,3.163 l -32.98,32.982 19.33,19.33 32.981,-32.982 c 2.04,-2.04 3.163,-4.751 3.163,-7.636 0,-2.885 -1.122,-5.597 -3.162,-7.637 z"
	 inkscape:connector-curvature="0" /><path
	 style="fill:#d65649;fill-opacity:1"
	 id="path5-7-5-2"
	 d="m 23.313,54.883 -10.17,10.17 5.513,5.513 10.17,-10.171 -5.513,-5.512 z m -4.03,7.456 2.134,-2.135 2.056,2.057 -2.135,2.133 -2.055,-2.055 z"
	 inkscape:connector-curvature="0" /><path
	 style="fill:#d65649;fill-opacity:1"
	 id="path7-6-6-0"
	 d="m 29.604,61.172 -10.17,10.171 5.514,5.514 10.17,-10.17 -5.514,-5.515 z M 27.135,70.19 25.078,68.135 27.213,66 l 2.055,2.056 -2.133,2.134 z"
	 inkscape:connector-curvature="0" /></g></svg>